<svg width="448" height="320" viewBox="0 0 448 320" fill="none" xmlns="http://www.w3.org/2000/svg">
<g clip-path="url(#clip0)">
<g opacity="0.6">
<path d="M288.928 136.659H444.85L389.201 190.09H232.753L288.928 136.659Z" fill="url(#paint0_linear)"/>
<path d="M288.403 136.659H444.85V11.6511H288.403V136.659Z" fill="url(#paint1_linear)" fill-opacity="0.2"/>
<path d="M413.351 11.6511H256.903V166.903H413.351V11.6511Z" fill="url(#paint2_linear)"/>
<path d="M413.351 166.903H256.903L232.754 190.09H389.201L413.351 166.903Z" fill="white"/>
<path d="M389.201 0.561646L413.351 11.6511V166.903L389.201 190.09V0.561646Z" fill="url(#paint3_linear)"/>
<path d="M232.754 0.561646L256.903 11.6511V166.903L232.754 190.09V0.561646Z" fill="url(#paint4_linear)"/>
<path d="M389.202 0.561646H232.754V190.09H389.202V0.561646Z" fill="url(#paint5_linear)"/>
<path d="M357.702 55.0007H268.453V190.09H357.702V55.0007Z" fill="url(#paint6_linear)"/>
<ellipse cx="340.377" cy="129.098" rx="6.82489" ry="6.55286" fill="url(#paint7_linear)"/>
</g>
<g opacity="0.8">
<path d="M180.618 190.68H357.98L294.679 250.974H116.72L180.618 190.68Z" fill="url(#paint8_linear)"/>
<path d="M256.46 190.68H357.98V60.9916H256.46V190.68Z" fill="url(#paint9_linear)" fill-opacity="0.2"/>
<path d="M322.15 49.6155H144.19V224.808H322.15V49.6155Z" fill="url(#paint10_linear)"/>
<path d="M322.149 224.808H144.19L116.72 250.973H294.679L322.149 224.808Z" fill="white"/>
<path d="M294.679 37.1017L322.149 49.6154V224.808L294.679 250.974V37.1017Z" fill="url(#paint11_linear)"/>
<path d="M116.72 37.1017L144.19 49.6154V224.808L116.72 250.974V37.1017Z" fill="url(#paint12_linear)"/>
<path d="M294.679 37.1017H116.72V250.974H294.679V37.1017Z" fill="url(#paint13_linear)"/>
<path d="M258.849 98.5329H157.328V250.974H258.849V98.5329Z" fill="url(#paint14_linear)"/>
<ellipse cx="239.141" cy="182.148" rx="7.76331" ry="7.39452" fill="url(#paint15_linear)"/>
</g>
<path d="M68.2783 251.703H258.634L190.696 319.84H-0.301086L68.2783 251.703Z" fill="url(#paint16_linear)"/>
<path d="M149.676 251.703H258.634V105.145H149.676V251.703Z" fill="url(#paint17_linear)" fill-opacity="0.2"/>
<path d="M220.179 92.289H29.1821V290.271H220.179V92.289Z" fill="url(#paint18_linear)"/>
<path d="M220.179 290.271H29.182L-0.30069 319.84H190.696L220.179 290.271Z" fill="white"/>
<path d="M190.696 78.1474L220.179 92.289V290.271L190.696 319.84V78.1474Z" fill="url(#paint19_linear)"/>
<path d="M-0.300587 78.1474L29.1821 92.289V290.271L-0.300587 319.84V78.1474Z" fill="url(#paint20_linear)"/>
<path d="M190.696 78.1474H-0.300537V319.84H190.696V78.1474Z" fill="url(#paint21_linear)"/>
<path d="M152.24 147.57H43.2825V319.84H152.24V147.57Z" fill="url(#paint22_linear)"/>
<ellipse cx="131.089" cy="242.061" rx="8.33205" ry="8.35641" fill="url(#paint23_linear)"/>
</g>
<defs>
<linearGradient id="paint0_linear" x1="450.883" y1="-2.75196" x2="241.098" y2="202.63" gradientUnits="userSpaceOnUse">
<stop stop-opacity="0"/>
<stop offset="1" stop-opacity="0.5"/>
</linearGradient>
<linearGradient id="paint1_linear" x1="366.626" y1="136.659" x2="366.626" y2="11.6511" gradientUnits="userSpaceOnUse">
<stop/>
<stop offset="1" stop-opacity="0"/>
</linearGradient>
<linearGradient id="paint2_linear" x1="413.351" y1="24.3939" x2="273.244" y2="185.221" gradientUnits="userSpaceOnUse">
<stop stop-color="#AF0823"/>
<stop offset="1" stop-color="white"/>
</linearGradient>
<linearGradient id="paint3_linear" x1="394.382" y1="1.91056" x2="394.382" y2="190.09" gradientUnits="userSpaceOnUse">
<stop stop-color="#9E061E"/>
<stop offset="1" stop-color="white"/>
</linearGradient>
<linearGradient id="paint4_linear" x1="238.045" y1="1.91056" x2="238.045" y2="190.09" gradientUnits="userSpaceOnUse">
<stop stop-color="#9E061E"/>
<stop offset="1" stop-color="white"/>
</linearGradient>
<linearGradient id="paint5_linear" x1="389.202" y1="14.0512" x2="241.493" y2="197.141" gradientUnits="userSpaceOnUse">
<stop stop-color="#BF0D2A"/>
<stop offset="1" stop-color="#BF0D2A" stop-opacity="0"/>
</linearGradient>
<linearGradient id="paint6_linear" x1="357.526" y1="55.0007" x2="274.625" y2="193.583" gradientUnits="userSpaceOnUse">
<stop stop-color="white" stop-opacity="0"/>
<stop offset="1" stop-color="white"/>
</linearGradient>
<linearGradient id="paint7_linear" x1="340.377" y1="122.546" x2="340.377" y2="135.651" gradientUnits="userSpaceOnUse">
<stop stop-color="#BF0D2A"/>
<stop offset="1" stop-color="white"/>
</linearGradient>
<linearGradient id="paint8_linear" x1="364.842" y1="33.3624" x2="128.079" y2="267.017" gradientUnits="userSpaceOnUse">
<stop stop-opacity="0"/>
<stop offset="1" stop-opacity="0.5"/>
</linearGradient>
<linearGradient id="paint9_linear" x1="307.22" y1="190.68" x2="307.22" y2="60.9916" gradientUnits="userSpaceOnUse">
<stop/>
<stop offset="1" stop-opacity="0"/>
</linearGradient>
<linearGradient id="paint10_linear" x1="322.15" y1="63.9949" x2="164.225" y2="246.73" gradientUnits="userSpaceOnUse">
<stop stop-color="#AF0823"/>
<stop offset="1" stop-color="white"/>
</linearGradient>
<linearGradient id="paint11_linear" x1="300.572" y1="38.6238" x2="300.572" y2="250.974" gradientUnits="userSpaceOnUse">
<stop stop-color="#9E061E"/>
<stop offset="1" stop-color="white"/>
</linearGradient>
<linearGradient id="paint12_linear" x1="122.739" y1="38.6238" x2="122.739" y2="250.974" gradientUnits="userSpaceOnUse">
<stop stop-color="#9E061E"/>
<stop offset="1" stop-color="white"/>
</linearGradient>
<linearGradient id="paint13_linear" x1="294.679" y1="52.3238" x2="128.285" y2="260.23" gradientUnits="userSpaceOnUse">
<stop stop-color="#BF0D2A"/>
<stop offset="1" stop-color="#BF0D2A" stop-opacity="0"/>
</linearGradient>
<linearGradient id="paint14_linear" x1="258.648" y1="98.5329" x2="165.454" y2="255.571" gradientUnits="userSpaceOnUse">
<stop stop-color="white" stop-opacity="0"/>
<stop offset="1" stop-color="white"/>
</linearGradient>
<linearGradient id="paint15_linear" x1="239.141" y1="174.753" x2="239.141" y2="189.542" gradientUnits="userSpaceOnUse">
<stop stop-color="#BF0D2A"/>
<stop offset="1" stop-color="white"/>
</linearGradient>
<linearGradient id="paint16_linear" x1="265.999" y1="73.9218" x2="-1.0247" y2="324.19" gradientUnits="userSpaceOnUse">
<stop stop-opacity="0"/>
<stop offset="1" stop-opacity="0.5"/>
</linearGradient>
<linearGradient id="paint17_linear" x1="204.155" y1="251.703" x2="204.155" y2="105.145" gradientUnits="userSpaceOnUse">
<stop/>
<stop offset="1" stop-opacity="0"/>
</linearGradient>
<linearGradient id="paint18_linear" x1="220.179" y1="108.539" x2="40.607" y2="305.874" gradientUnits="userSpaceOnUse">
<stop stop-color="#AF0823"/>
<stop offset="1" stop-color="white"/>
</linearGradient>
<linearGradient id="paint19_linear" x1="197.02" y1="79.8676" x2="197.02" y2="319.84" gradientUnits="userSpaceOnUse">
<stop stop-color="#9E061E"/>
<stop offset="1" stop-color="white"/>
</linearGradient>
<linearGradient id="paint20_linear" x1="6.15971" y1="79.8676" x2="6.15971" y2="319.84" gradientUnits="userSpaceOnUse">
<stop stop-color="#9E061E"/>
<stop offset="1" stop-color="white"/>
</linearGradient>
<linearGradient id="paint21_linear" x1="190.696" y1="95.3497" x2="0.762337" y2="320.736" gradientUnits="userSpaceOnUse">
<stop stop-color="#BF0D2A"/>
<stop offset="1" stop-color="#BF0D2A" stop-opacity="0"/>
</linearGradient>
<linearGradient id="paint22_linear" x1="152.025" y1="147.57" x2="44.1857" y2="320.15" gradientUnits="userSpaceOnUse">
<stop stop-color="white" stop-opacity="0"/>
<stop offset="1" stop-color="white"/>
</linearGradient>
<linearGradient id="paint23_linear" x1="131.089" y1="233.705" x2="131.089" y2="250.418" gradientUnits="userSpaceOnUse">
<stop stop-color="#BF0D2A"/>
<stop offset="1" stop-color="white"/>
</linearGradient>
<clipPath id="clip0">
<rect width="448" height="320" fill="white"/>
</clipPath>
</defs>
</svg>
