<svg fill="none" height="623" viewBox="0 0 918 623" width="918" xmlns="http://www.w3.org/2000/svg" xmlns:xlink="http://www.w3.org/1999/xlink"><linearGradient id="a"><stop offset="0" stop-opacity="0"/><stop offset="1" stop-opacity=".5"/></linearGradient><linearGradient id="b" gradientUnits="userSpaceOnUse" x1="839.807" x2="475.521" xlink:href="#a" y1="42.1624" y2="399.839"/><linearGradient id="c"><stop offset="0"/><stop offset="1" stop-opacity="0"/></linearGradient><linearGradient id="d" gradientUnits="userSpaceOnUse" x1="751.592" x2="751.592" xlink:href="#c" y1="284.233" y2="84.6765"/><linearGradient id="e"><stop offset="0" stop-color="#af0823"/><stop offset="1" stop-color="#fff"/></linearGradient><linearGradient id="f" gradientUnits="userSpaceOnUse" x1="774.449" x2="531.267" xlink:href="#e" y1="89.2978" y2="369.253"/><linearGradient id="g"><stop offset="0" stop-color="#9e061e"/><stop offset="1" stop-color="#fff"/></linearGradient><linearGradient id="h" gradientUnits="userSpaceOnUse" x1="741.415" x2="741.415" xlink:href="#g" y1="50.2582" y2="377.009"/><linearGradient id="i" gradientUnits="userSpaceOnUse" x1="469.168" x2="469.168" xlink:href="#g" y1="50.2582" y2="377.009"/><linearGradient id="j"><stop offset="0" stop-color="#bf0d2a"/><stop offset="1" stop-color="#bf0d2a" stop-opacity="0"/></linearGradient><linearGradient id="k" gradientUnits="userSpaceOnUse" x1="732.394" x2="476.074" xlink:href="#j" y1="71.339" y2="389.977"/><linearGradient id="l"><stop offset="0" stop-color="#fff" stop-opacity="0"/><stop offset="1" stop-color="#fff"/></linearGradient><linearGradient id="m" gradientUnits="userSpaceOnUse" x1="677.233" x2="533.484" xlink:href="#l" y1="142.443" y2="383.44"/><linearGradient id="n"><stop offset="0" stop-color="#bf0d2a"/><stop offset="1" stop-color="#fff"/></linearGradient><linearGradient id="o" gradientUnits="userSpaceOnUse" x1="647.37" x2="647.37" xlink:href="#n" y1="259.726" y2="282.482"/><linearGradient id="p" gradientUnits="userSpaceOnUse" x1="690.06" x2="259.558" xlink:href="#a" y1="92.1706" y2="513.971"/><linearGradient id="q" gradientUnits="userSpaceOnUse" x1="586.026" x2="586.026" xlink:href="#c" y1="378.254" y2="142.415"/><linearGradient id="r" gradientUnits="userSpaceOnUse" x1="612.981" x2="325.501" xlink:href="#e" y1="147.876" y2="478.131"/><linearGradient id="s" gradientUnits="userSpaceOnUse" x1="574.024" x2="574.024" xlink:href="#g" y1="101.739" y2="487.898"/><linearGradient id="t" gradientUnits="userSpaceOnUse" x1="252.956" x2="252.956" xlink:href="#g" y1="101.739" y2="487.898"/><linearGradient id="u" gradientUnits="userSpaceOnUse" x1="563.385" x2="260.326" xlink:href="#j" y1="126.652" y2="502.6"/><linearGradient id="v" gradientUnits="userSpaceOnUse" x1="498.333" x2="328.276" xlink:href="#l" y1="210.684" y2="495.183"/><linearGradient id="w" gradientUnits="userSpaceOnUse" x1="463.114" x2="463.114" xlink:href="#n" y1="349.291" y2="376.185"/><linearGradient id="x" gradientUnits="userSpaceOnUse" x1="512.504" x2="20.8558" xlink:href="#a" y1="161.884" y2="644.058"/><linearGradient id="y" gradientUnits="userSpaceOnUse" x1="393.582" x2="393.582" xlink:href="#c" y1="488.594" y2="219.263"/><linearGradient id="z" gradientUnits="userSpaceOnUse" x1="424.394" x2="96.1318" xlink:href="#e" y1="225.5" y2="602.969"/><linearGradient id="A" gradientUnits="userSpaceOnUse" x1="379.861" x2="379.861" xlink:href="#g" y1="172.811" y2="613.81"/><linearGradient id="B" gradientUnits="userSpaceOnUse" x1="12.8449" x2="12.8449" xlink:href="#g" y1="172.811" y2="613.81"/><linearGradient id="C" gradientUnits="userSpaceOnUse" x1="367.7" x2="21.6734" xlink:href="#j" y1="201.262" y2="630.924"/><linearGradient id="D" gradientUnits="userSpaceOnUse" x1="293.338" x2="99.22" xlink:href="#l" y1="297.227" y2="622.293"/><linearGradient id="E" gradientUnits="userSpaceOnUse" x1="253.079" x2="253.079" xlink:href="#n" y1="455.518" y2="486.232"/><g opacity=".6"><path d="m557.775 284.233h271.527l-96.908 92.776h-272.441z" fill="url(#b)"/><path d="m673.883 284.233h155.419v-199.5565h-155.419z" fill="url(#d)" fill-opacity=".2"/><path d="m774.449 67.1716h-272.441v269.5764h272.441z" fill="url(#f)"/><path d="m774.449 336.748h-272.441l-42.055 40.261h272.441z" fill="#fff"/><path d="m732.394 47.916 42.055 19.2554v269.5756l-42.055 40.262z" fill="url(#h)"/><path d="m459.953 47.916 42.055 19.2554v269.5756l-42.055 40.262z" fill="url(#i)"/><path d="m732.394 47.916h-272.441v329.093h272.441z" fill="url(#k)"/><path d="m677.54 142.443h-155.419v234.566h155.419z" fill="url(#m)"/><ellipse cx="647.37" cy="271.104" fill="url(#o)" rx="11.885" ry="11.3782"/></g><g opacity=".8"><path d="m357.453 378.254h320.218l-114.286 109.644h-321.297z" fill="url(#p)"/><path d="m494.381 378.254h183.29v-235.839h-183.29z" fill="url(#q)" fill-opacity=".2"/><path d="m612.981 121.727h-321.296v318.59h321.296z" fill="url(#r)"/><path d="m612.981 440.317h-321.296l-49.596 47.581h321.296z" fill="#fff"/><path d="m563.385 98.9705 49.596 22.7565v318.59l-49.596 47.581z" fill="url(#s)"/><path d="m242.089 98.9705 49.596 22.7565v318.59l-49.596 47.581z" fill="url(#t)"/><path d="m563.385 98.9705h-321.297v388.9275h321.297z" fill="url(#u)"/><path d="m498.694 210.684h-183.29v277.214h183.29z" fill="url(#v)"/><ellipse cx="463.114" cy="362.738" fill="url(#w)" rx="14.0163" ry="13.447"/></g><path d="m132.296 488.594h366.046l-130.642 125.216h-367.278583z" fill="url(#x)"/><path d="m288.821 488.594h209.521v-269.331h-209.521z" fill="url(#y)" fill-opacity=".2"/><path d="m424.394 195.638h-367.278v363.833h367.278z" fill="url(#z)"/><path d="m424.394 559.471h-367.2781l-56.693933 54.338h367.278033z" fill="#fff"/><path d="m367.7 169.649 56.694 25.989v363.833l-56.694 54.338z" fill="url(#A)"/><path d="m.422085 169.649 56.693915 25.989v363.833l-56.693915 54.338z" fill="url(#B)"/><path d="m367.7 169.649h-367.278308v444.16h367.278308z" fill="url(#C)"/><path d="m293.751 297.227h-209.5208v316.582h209.5208z" fill="url(#D)"/><ellipse cx="253.079" cy="470.875" fill="url(#E)" rx="16.0222" ry="15.3566"/></svg>