<svg width="288" height="210" viewBox="0 0 288 210" fill="none" xmlns="http://www.w3.org/2000/svg">
<g clip-path="url(#clip0)">
<g opacity="0.6">
<path d="M189.586 90.3546H291.585L255.182 125.403H152.839L189.586 90.3546Z" fill="url(#paint0_linear)"/>
<path d="M189.243 90.3546H291.585V8.35369H189.243V90.3546Z" fill="url(#paint1_linear)" fill-opacity="0.2"/>
<path d="M270.98 8.3537H168.637V110.193H270.98V8.3537Z" fill="url(#paint2_linear)"/>
<path d="M270.98 110.193H168.637L152.839 125.403H255.182L270.98 110.193Z" fill="white"/>
<path d="M255.182 1.07941L270.98 8.35368V110.193L255.182 125.403V1.07941Z" fill="url(#paint3_linear)"/>
<path d="M152.839 1.07941L168.637 8.35368V110.193L152.839 125.403V1.07941Z" fill="url(#paint4_linear)"/>
<path d="M255.182 1.07941H152.839V125.403H255.182V1.07941Z" fill="url(#paint5_linear)"/>
<path d="M234.576 36.7894H176.192V125.403H234.576V36.7894Z" fill="url(#paint6_linear)"/>
<ellipse cx="223.242" cy="85.3948" rx="4.46461" ry="4.29844" fill="url(#paint7_linear)"/>
</g>
<g opacity="0.8">
<path d="M118.713 125.618H235.005L193.5 165.324H76.8161L118.713 125.618Z" fill="url(#paint8_linear)"/>
<path d="M168.44 125.618H235.005V40.2139H168.44V125.618Z" fill="url(#paint9_linear)" fill-opacity="0.2"/>
<path d="M211.512 32.7224H94.8279V148.093H211.512V32.7224Z" fill="url(#paint10_linear)"/>
<path d="M211.512 148.093H94.828L76.8163 165.324H193.5L211.512 148.093Z" fill="white"/>
<path d="M193.5 24.4816L211.512 32.7224V148.093L193.5 165.324V24.4816Z" fill="url(#paint11_linear)"/>
<path d="M76.8163 24.4816L94.8279 32.7224V148.093L76.8163 165.324V24.4816Z" fill="url(#paint12_linear)"/>
<path d="M193.5 24.4816H76.8164V165.324H193.5V24.4816Z" fill="url(#paint13_linear)"/>
<path d="M170.007 64.9363H103.442V165.324H170.007V64.9363Z" fill="url(#paint14_linear)"/>
<ellipse cx="157.085" cy="120" rx="5.09023" ry="4.86956" fill="url(#paint15_linear)"/>
</g>
<path d="M44.742 165.633H169.48L124.961 210.241H-0.197403L44.742 165.633Z" fill="url(#paint16_linear)"/>
<path d="M98.0813 165.633H169.48V69.6848H98.0813V165.633Z" fill="url(#paint17_linear)" fill-opacity="0.2"/>
<path d="M144.281 61.2684H19.1228V190.883H144.281V61.2684Z" fill="url(#paint18_linear)"/>
<path d="M144.281 190.883H19.1227L-0.196976 210.241H124.961L144.281 190.883Z" fill="white"/>
<path d="M124.961 52.0102L144.281 61.2684V190.883L124.961 210.241V52.0102Z" fill="url(#paint19_linear)"/>
<path d="M-0.196928 52.0102L19.1228 61.2684V190.883L-0.196928 210.241V52.0102Z" fill="url(#paint20_linear)"/>
<path d="M124.961 52.0102H-0.197021V210.241H124.961V52.0102Z" fill="url(#paint21_linear)"/>
<path d="M99.7618 97.4593H28.3628V210.241H99.7618V97.4593Z" fill="url(#paint22_linear)"/>
<ellipse cx="85.9016" cy="159.321" rx="5.45991" ry="5.47075" fill="url(#paint23_linear)"/>
</g>
<defs>
<linearGradient id="paint0_linear" x1="295.532" y1="-1.09421" x2="157.929" y2="133.252" gradientUnits="userSpaceOnUse">
<stop stop-opacity="0"/>
<stop offset="1" stop-opacity="0.5"/>
</linearGradient>
<linearGradient id="paint1_linear" x1="240.414" y1="90.3546" x2="240.414" y2="8.35369" gradientUnits="userSpaceOnUse">
<stop/>
<stop offset="1" stop-opacity="0"/>
</linearGradient>
<linearGradient id="paint2_linear" x1="270.98" y1="16.7125" x2="179.04" y2="121.96" gradientUnits="userSpaceOnUse">
<stop stop-color="#AF0823"/>
<stop offset="1" stop-color="white"/>
</linearGradient>
<linearGradient id="paint3_linear" x1="258.571" y1="1.96424" x2="258.571" y2="125.403" gradientUnits="userSpaceOnUse">
<stop stop-color="#9E061E"/>
<stop offset="1" stop-color="white"/>
</linearGradient>
<linearGradient id="paint4_linear" x1="156.3" y1="1.96424" x2="156.3" y2="125.403" gradientUnits="userSpaceOnUse">
<stop stop-color="#9E061E"/>
<stop offset="1" stop-color="white"/>
</linearGradient>
<linearGradient id="paint5_linear" x1="255.182" y1="9.92808" x2="158.235" y2="129.768" gradientUnits="userSpaceOnUse">
<stop stop-color="#BF0D2A"/>
<stop offset="1" stop-color="#BF0D2A" stop-opacity="0"/>
</linearGradient>
<linearGradient id="paint6_linear" x1="234.461" y1="36.7894" x2="180.01" y2="127.563" gradientUnits="userSpaceOnUse">
<stop stop-color="white" stop-opacity="0"/>
<stop offset="1" stop-color="white"/>
</linearGradient>
<linearGradient id="paint7_linear" x1="223.242" y1="81.0964" x2="223.242" y2="89.6933" gradientUnits="userSpaceOnUse">
<stop stop-color="#BF0D2A"/>
<stop offset="1" stop-color="white"/>
</linearGradient>
<linearGradient id="paint8_linear" x1="239.504" y1="22.0191" x2="83.598" y2="175.211" gradientUnits="userSpaceOnUse">
<stop stop-opacity="0"/>
<stop offset="1" stop-opacity="0.5"/>
</linearGradient>
<linearGradient id="paint9_linear" x1="201.723" y1="125.618" x2="201.723" y2="40.2139" gradientUnits="userSpaceOnUse">
<stop/>
<stop offset="1" stop-opacity="0"/>
</linearGradient>
<linearGradient id="paint10_linear" x1="211.512" y1="42.1918" x2="107.448" y2="162.082" gradientUnits="userSpaceOnUse">
<stop stop-color="#AF0823"/>
<stop offset="1" stop-color="white"/>
</linearGradient>
<linearGradient id="paint11_linear" x1="197.364" y1="25.484" x2="197.364" y2="165.324" gradientUnits="userSpaceOnUse">
<stop stop-color="#9E061E"/>
<stop offset="1" stop-color="white"/>
</linearGradient>
<linearGradient id="paint12_linear" x1="80.763" y1="25.484" x2="80.763" y2="165.324" gradientUnits="userSpaceOnUse">
<stop stop-color="#9E061E"/>
<stop offset="1" stop-color="white"/>
</linearGradient>
<linearGradient id="paint13_linear" x1="193.5" y1="34.5059" x2="83.8204" y2="170.954" gradientUnits="userSpaceOnUse">
<stop stop-color="#BF0D2A"/>
<stop offset="1" stop-color="#BF0D2A" stop-opacity="0"/>
</linearGradient>
<linearGradient id="paint14_linear" x1="169.876" y1="64.9363" x2="108.377" y2="168.117" gradientUnits="userSpaceOnUse">
<stop stop-color="white" stop-opacity="0"/>
<stop offset="1" stop-color="white"/>
</linearGradient>
<linearGradient id="paint15_linear" x1="157.085" y1="115.13" x2="157.085" y2="124.869" gradientUnits="userSpaceOnUse">
<stop stop-color="#BF0D2A"/>
<stop offset="1" stop-color="white"/>
</linearGradient>
<linearGradient id="paint16_linear" x1="174.306" y1="49.2437" x2="-0.518157" y2="213.252" gradientUnits="userSpaceOnUse">
<stop stop-opacity="0"/>
<stop offset="1" stop-opacity="0.5"/>
</linearGradient>
<linearGradient id="paint17_linear" x1="133.781" y1="165.633" x2="133.781" y2="69.6848" gradientUnits="userSpaceOnUse">
<stop/>
<stop offset="1" stop-opacity="0"/>
</linearGradient>
<linearGradient id="paint18_linear" x1="144.281" y1="71.9068" x2="26.73" y2="201.207" gradientUnits="userSpaceOnUse">
<stop stop-color="#AF0823"/>
<stop offset="1" stop-color="white"/>
</linearGradient>
<linearGradient id="paint19_linear" x1="129.106" y1="53.1363" x2="129.106" y2="210.241" gradientUnits="userSpaceOnUse">
<stop stop-color="#9E061E"/>
<stop offset="1" stop-color="white"/>
</linearGradient>
<linearGradient id="paint20_linear" x1="4.03644" y1="53.1363" x2="4.03644" y2="210.241" gradientUnits="userSpaceOnUse">
<stop stop-color="#9E061E"/>
<stop offset="1" stop-color="white"/>
</linearGradient>
<linearGradient id="paint21_linear" x1="124.961" y1="63.2721" x2="0.635878" y2="210.942" gradientUnits="userSpaceOnUse">
<stop stop-color="#BF0D2A"/>
<stop offset="1" stop-color="#BF0D2A" stop-opacity="0"/>
</linearGradient>
<linearGradient id="paint22_linear" x1="99.621" y1="97.4593" x2="29.0499" y2="210.503" gradientUnits="userSpaceOnUse">
<stop stop-color="white" stop-opacity="0"/>
<stop offset="1" stop-color="white"/>
</linearGradient>
<linearGradient id="paint23_linear" x1="85.9016" y1="153.85" x2="85.9016" y2="164.791" gradientUnits="userSpaceOnUse">
<stop stop-color="#BF0D2A"/>
<stop offset="1" stop-color="white"/>
</linearGradient>
<clipPath id="clip0">
<rect width="288" height="210" fill="white"/>
</clipPath>
</defs>
</svg>
