<svg width="493" height="116" viewBox="0 0 493 116" fill="none" xmlns="http://www.w3.org/2000/svg">
<path fill-rule="evenodd" clip-rule="evenodd" d="M493 104.668C493 109.724 492.39 113.346 490.761 114.607C489.295 115.739 467.944 116.299 436.243 115.838L436.86 115.212L436.711 114.793L436.307 114.599L435.463 114.527L434.982 114.909L434.771 115.599L434.53 115.809C432.744 115.782 430.937 115.759 429.073 115.722L430.32 115.254L431.043 115.32L431.461 114.873L431.666 114.195L431.122 113.584L429.356 113.433L428.839 113.77L428.246 114.044C427.736 114.218 426.87 114.533 426.87 115.462C426.87 115.536 426.877 115.608 426.883 115.693C422.505 115.63 417.923 115.536 413.182 115.448C411.984 115.306 410.986 115.066 410.178 114.821C409.482 114.621 408.816 114.382 408.165 114.152C407.188 113.807 406.209 113.462 404.962 113.174C404.239 113.167 403.849 113.007 403.389 112.806C402.929 112.605 402.398 112.38 401.534 112.352H401.52L401.015 112.59L400.727 113.072L400.074 113.77L400.35 114.527L401.484 114.989L402.122 115.232C400.889 115.204 399.67 115.175 398.417 115.154L398.515 114.867L397.417 113.85L395.887 114.268L395.171 114.527L394.795 114.607L394.15 114.448L393.646 114.037L391.211 113.915C390.822 113.915 389.778 113.915 389.566 114.787L389.644 114.972L388.192 114.938L388.284 114.836H388.311L388.765 114.439L388.998 113.713L388.46 113.115L382.722 112.727C382.111 111.56 380.901 110.761 379.086 110.306L378.952 110.293L378.583 110.429L378.386 110.905L378.002 111.9L377.428 113.016L377.868 113.6C379.731 114.039 381.779 114.383 383.855 114.731L384.691 114.859C318.771 113.412 230.091 110.965 143.576 109.119L143.815 109.041L145.232 108.523L145.538 107.427L145.162 107.017L144.574 106.88H144.539L143.773 107.002C142.812 107.666 140.968 107.902 139.182 108.142L137.999 108.307L137.107 108.364L136.645 108.982C116.961 108.572 18.9872 111.389 3.92613 106.908L0 20.6764C30.2457 18.6877 251.971 20.6327 381.878 20.6696C381.459 20.7646 381.007 20.9406 380.507 21.2567L379.225 22.0846L379.283 22.6041C381.261 23.7874 382.613 21.5181 382.913 23.7837L386.36 24.0287C384.367 24.5023 385.034 26.8164 388.901 26.1675L389.293 25.0449L388.812 24.4811H388.763C390.438 21.9606 397.047 21.7029 400.053 22.0197L399.725 23.2878L402.954 22.696L404.302 23.4447L404.216 23.8998L407.487 27.0966C409.88 27.0795 407.044 25.1901 411.94 24.2504L412.355 24.0861L412.617 22.9632L416.444 23.0999C419.663 23.6179 419.288 24.8898 421.441 21.2567L412.982 21.826L413.045 21.487L410.144 21.4221L399.675 20.6607C444.321 20.6026 474.568 20.2473 475.971 19.2942C483.589 14.1234 486.184 41.7889 489.719 70.8384C491.235 83.2812 493 96.0559 493 104.668ZM365.163 27.4082L377.328 27.5022L377.429 26.0475L377.168 24.1896L373.464 24.3553C371.838 24.6137 368.281 21.0629 367.273 22.7851C367.011 24.1896 366.095 25.2551 364.792 26.3865L364.625 27.0354L365.163 27.4082ZM374.045 30.8848C374.045 27.6088 367.92 31.4196 371.259 31.777C371.259 31.777 374.045 33.3615 374.045 30.8848ZM345.405 30.2523L345.092 32.1973C345.485 32.4899 348.519 33.965 348.977 30.4197L354.005 30.0866L355.452 28.2434L356.61 26.4862C357.168 26.2412 358.011 26.0898 359.154 26.0475L360.631 23.2383C358.257 20.9214 356.098 24.6506 352.171 23.7286L349.835 25.9679L348.897 28.4515L344.357 28.8195L345.405 30.2523ZM339.278 22.8692C338.278 19.9352 333.399 21.8793 334.528 24.9653L335.975 25.347L336.433 24.9858L336.47 24.3591L339.016 23.6036L339.278 22.8692ZM427.833 29.3068C430.011 29.5538 425.101 22.3549 439.29 24.9653L439.02 25.6976L444.391 25.8575L446.305 26.1732L446.421 25.6203L450.792 23.8633L447.309 23.9203C438.87 23.9938 434.022 20.5599 426.233 24.1934C424.329 25.0818 422.195 23.8728 422.588 27.1109L420.224 27.8886L420.492 28.9969L421.243 29.3727L421.962 29.0481L421.133 30.473C423.087 31.7015 422.717 28.7255 427.833 29.3068ZM345.535 22.0993C342.912 19.817 339.338 23.7266 344.085 23.7266L345.535 22.0993ZM368.807 111.258L369.026 111.813L369.586 112.063L369.622 112.057L370.152 112.604H370.337C370.875 112.604 371.201 112.444 371.988 112.143L372.549 111.026L372.045 110.436L370.578 110.313C370.203 110.313 369.056 110.32 368.807 111.257V111.258ZM342.72 110.041L342.86 110.465L343.264 110.653L344.015 110.913L344.604 111.171L344.646 111.164C345.545 111.899 346.745 111.979 347.572 111.979L349.223 111.885L350.526 111.805L351.782 112.138L353.377 112.742C353.971 112.993 354.551 113.247 355.246 113.426L355.387 113.45C356.259 113.443 357.037 113.328 357.817 113.225C358.54 113.118 359.263 113.009 360.064 113.009C360.774 113.009 361.48 113.089 362.217 113.269L362.346 113.293L362.741 113.133L362.912 112.609L363.061 111.521L364.173 111.147L364.754 110.031L364.577 109.577L364.188 109.418H364.123C362.934 109.549 361.687 109.641 360.417 109.649C358.321 109.649 356.471 109.418 354.778 108.937L354.622 108.916L354.097 109.255L354.055 109.534L353.73 109.428H353.702C351.775 109.534 350.224 109.888 348.721 110.235L347.956 110.329C347.29 110.329 347.105 110.133 346.815 109.839C346.504 109.506 346.065 109.061 345.072 109.009L344.427 109.053C343.805 109.067 342.785 109.103 342.721 110.047L342.72 110.041ZM342.967 101.622L343.519 102.113L344.377 102.343L346.992 102.48L347.417 102.033L347.608 101.349L347.07 100.745L344.122 100.586C343.477 100.586 343.087 100.939 342.967 101.622ZM336.705 110.841C336.761 111.193 336.902 112.006 338.311 112.488L338.616 112.992L339.269 113.252L339.729 113.276L340.289 112.795L340.99 112.216L341.417 112.23L341.868 111.848L342.089 111.159L342.123 110.005L341.969 109.594L341.565 109.415L340.778 109.387L339.679 109.279C338.986 109.279 338.477 109.423 338.042 109.574L337.122 109.789L336.719 110.201L336.705 110.841ZM327.89 111.106L328.052 111.525L328.456 111.711C329.23 111.724 329.759 111.899 330.32 112.087C330.986 112.288 331.665 112.502 332.73 112.502L333.728 112.445L334.451 111.725L335.102 110.998L334.897 110.306C333.862 109.545 331.9 109.514 329.81 109.466L328.52 109.438L328.102 109.82L327.917 110.467L327.89 111.106ZM319.253 111.437L319.884 111.344L320.997 111.409C321.406 111.446 321.824 111.482 322.612 111.488L323.248 111.515L323.822 110.946L323.843 110.364L323.339 109.78L322.284 109.649C321.03 109.484 320.541 109.435 319.868 109.435L318.904 109.462L319.499 108.747L319.429 107.59C319.145 107.114 318.585 106.949 317.665 106.949L316.814 106.983L316.112 107.597C315.566 108.021 314.887 108.554 314.887 109.604C314.887 110.043 315.008 110.57 315.305 111.225L316.339 111.34L316.572 111.254L317.133 111.838L317.884 112.089L318.784 112.45H318.84L319.272 112.133L319.253 111.437ZM313.776 108.161C313.818 108.126 314.074 107.938 315.526 107.901L316.078 107.383L315.818 106.275L315.087 105.899L314.385 106.224L315.08 105.497L315.192 104.799L314.69 104.474L314.57 104.488C313.755 104.667 313.18 105.015 312.669 105.331C311.977 105.756 311.375 106.115 310.192 106.115L308.667 105.964L308.561 105.95L308.194 106.102L307.988 106.548C307.988 106.614 307.988 106.677 307.988 106.742C307.988 107.995 307.669 108.938 307.03 109.593C306.195 110.465 304.779 110.89 302.702 110.898C301.32 110.898 299.648 110.71 297.509 110.306L297.772 109.573L297.352 109.018L295.894 108.816C295.1 108.816 294.314 108.968 293.64 109.097L292.542 109.414L291.799 108.867L291.118 108.853L290.678 109.097L290.566 109.651L288.9 109.847C287.709 109.868 286.484 109.882 286.188 110.855L286.308 111.409L286.74 111.602L286.838 111.589C287.751 111.432 288.709 111.367 289.7 111.353C291.947 111.346 294.406 111.706 296.772 112.044C299.146 112.381 301.598 112.728 303.849 112.72C306.691 112.72 308.824 112.158 310.226 111.079L311.515 110.768L312.344 110.552L313.28 110.387C313.726 109.876 313.841 109.379 313.841 108.905C313.841 108.652 313.805 108.401 313.776 108.162V108.161ZM280.127 107.298L280.391 108.089C281.014 108.492 281.703 108.708 282.362 108.708C283.261 108.708 284.047 108.32 284.514 107.643C284.797 107.24 284.94 106.765 284.94 106.246C284.94 105.908 284.884 105.562 284.755 105.201L283.345 104.819L282.9 105.18L282.863 105.807L281.851 106.102L280.383 106.562L280.127 107.298ZM274.034 108.067L274.681 108.645L275.629 108.673C276.245 108.673 277.529 108.673 277.776 107.679L277.507 107.023C277.019 106.741 276.153 106.44 275.446 106.44C274.41 106.44 274.135 107.074 274.064 107.347L274.034 108.067ZM269.785 104.36C269.813 104.315 270.018 104.085 271.307 104.085L273.787 104.159L274.205 103.993L274.362 103.56C274.338 102.927 273.858 102.688 273.185 102.559L273.285 101.263L273.49 100.614L272.952 100.204L271.201 100.173C270.11 100.18 269.948 101.009 269.805 101.606L269.707 102.391L268.799 102.153C268.213 101.952 267.474 101.707 266.688 101.715L265.81 101.829L265.379 102.376L264.81 102.723L263.613 103.666L263.4 104.567H263.344L262.841 104.775L262.6 105.307L262.217 106.15L262.273 106.324C261.728 106.569 260.907 106.72 259.795 106.763L259.249 107.367C259.249 107.381 259.249 107.398 259.249 107.41C259.249 107.865 258.986 108.145 258.377 108.988L258.356 109.571L258.78 109.997L259.448 110.161L261.197 110.168L261.822 110.097L262.671 109.606C263.507 109.096 264.059 108.766 264.91 108.766C265.379 108.766 265.93 108.865 266.595 109.082L266.774 109.11L267.091 109.016L267.346 108.562C267.396 107.842 267.957 107.423 268.871 106.842C269.182 106.64 269.487 106.438 269.983 105.791L269.933 104.94L269.785 104.36ZM247.941 108.448C247.969 109.357 248.976 109.437 250.159 109.545L254.587 109.566L255.055 109.329L255.131 108.795L254.304 107.888L254.02 107.471L253.488 107.298L252.001 107.284L251.47 107.638C251.305 107.803 250.329 107.823 249.578 107.823L248.472 107.854L247.941 108.448ZM246.268 99.2812C246.268 99.3017 246.268 99.3257 246.275 99.3462C246.31 100.104 246.884 100.636 247.671 100.657H247.685L248.691 100.147C249.174 100.024 249.987 99.7997 250.015 98.9587L249.626 98.5257L249.067 98.3815L248.981 98.3884L248.224 98.1433L247.699 97.8044L247.627 97.8146C246.735 97.9229 246.268 98.6409 246.268 99.282L246.268 99.2812ZM242.734 108.585L243.866 109.781L244.482 110.3L245.362 110.653L246.758 110.66L247.325 110.192L247.14 108.881L246.324 108.537L245.604 108.636L245.377 108.673L244.732 108.363L243.286 107.853H243.265L242.826 108.089L242.734 108.585ZM208.285 108.679L209.277 109.3L209.367 109.307L209.894 108.969L210.827 108.731L211.111 108.745C213.642 108.752 218.409 109.226 223.447 109.739C227.039 110.106 230.703 110.474 233.686 110.673L233.72 110.684L234.174 110.467C234.564 109.963 235.591 109.652 237.186 109.552L238.936 109.566L239.976 108.911L241.223 108.082L241.167 107.563L240.736 107.298L240.133 107.267L238.425 107.324C237.887 107.324 237.675 107.267 237.675 107.145C237.675 107.118 237.689 107.079 237.717 107.037L237.633 106.382L237.207 106.179L236.994 106.222C236.405 106.467 235.839 106.698 234.911 106.74L234.303 106.216L234.275 106.137C235.103 105.934 235.338 105.533 235.338 105.171C235.338 105.157 235.338 105.151 235.338 105.136C235.287 104.314 234.054 103.803 232.927 103.803L231.801 103.997L231.419 105.12L231.887 105.684H231.935L231.483 106.382C228.762 107.684 226.268 108.282 223.427 108.282C222.641 108.282 221.811 108.239 220.939 108.145L221.258 106.878L220.465 106.325L218.906 106.345L218.326 106.77L218.113 107.47L216.802 106.72L216.886 106.265L216.611 105.883L216.073 104.948C215.824 104.214 215.462 103.091 213.699 103.068C212.622 103.099 212.46 103.918 212.168 104.653C211.574 105.359 211.092 105.906 209.391 105.914H209.363L208.96 106.08L208.797 106.496L208.705 107.203L208.5 107.043L204.977 107.066C204.419 106.872 203.369 106.497 202.513 106.497C201.18 106.497 200.997 107.425 200.783 107.743L200.111 108.91L200.684 109.471H201.058C203.892 109.464 206.656 109.285 208.349 108.34L208.285 108.679ZM197.388 93.3638L197.642 95.2207L198.882 95.6826L200.095 95.4434L201.249 95.0559C202.587 95.0559 204.367 96.0992 205.48 96.9935L206.713 97.1008H206.727L207.28 96.6251C207.534 95.2206 208.426 94.1552 209.696 93.0248L209.858 92.3758L209.334 92.0021C205.898 91.8801 197.963 91.6631 197.963 91.6631L197.486 91.9081L197.424 92.4552L197.388 93.3638ZM197.486 102.4L198.06 102.833L198.789 103.047L199.691 103.38H199.747L200.306 102.789L202.39 102.761L202.921 102.38L202.914 101.366C202.664 100.875 202.112 100.724 201.198 100.502L200.71 99.9746L199.994 99.9175C198.634 99.9175 198.301 100.716 198.074 101.243L197.74 101.739L197.486 102.4ZM191.409 106.116L191.513 107.269C191.932 107.888 192.861 107.925 193.909 108.218L194.064 108.73L194.582 109.061L199.159 108.961C199.854 108.961 200.258 108.599 200.291 107.506C199.882 106.815 199.322 106.469 198.585 106.469L197.755 106.152L197.545 105.72L197.182 105.597L197.083 105.604L196.396 105.683L195.446 105.272C195.121 104.977 194.68 104.581 193.674 104.581L193.236 104.891L193.186 105.466C193.094 105.575 192.661 105.661 191.911 105.726L191.409 106.116ZM180.738 105.036C180.738 105.44 180.887 105.936 181.276 106.562C182.106 106.936 182.97 107.124 183.855 107.124C185.646 107.117 187.362 106.303 188.34 104.979C188.858 104.281 189.119 103.508 189.119 102.73C189.119 102.415 189.077 102.098 188.993 101.788L188.673 101.421L188.432 101.371L188.197 101.421C187.333 101.825 187.092 102.574 186.894 103.178C186.646 103.956 186.504 104.374 185.35 104.38L184.648 104.33V104.129C184.648 104.122 184.648 104.122 184.648 104.115C184.648 103.446 184.641 102.228 183.289 102.062L183.216 102.055L182.821 102.212L182.644 102.696L181.927 103.445C181.467 103.711 180.738 104.143 180.738 105.036V105.036ZM175.684 103.423L175.691 104.546L175.904 104.979L176.272 105.121L176.364 105.107C177.123 104.979 177.654 104.726 178.163 104.475C178.837 104.159 179.419 103.885 180.594 103.877H180.608L181.174 103.395L180.905 102.141C180.325 101.387 179.148 101.299 177.902 101.205L177.107 101.133L176.726 101.293L176.535 101.709V102.307L176.888 102.617L177.093 102.674L177.491 102.617L176.782 102.76L176.131 102.854L175.684 103.423ZM173.313 94.6377C173.524 94.2783 174.098 93.8965 175.119 93.8965L176.033 93.9819L176.138 93.9957L176.592 93.7653L179.171 90.3383L179.192 89.6599L178.709 89.4091L178.567 89.4228C175.329 90.3283 173.281 91.9723 171.299 93.5616L169.696 94.815L169.471 95.2057L169.592 95.6444C170.505 96.8096 172.006 97.5245 174.068 97.7975L173.869 98.4669L174.182 98.8835L174.721 99.0366L175.366 99.0058L175.84 98.5524L176.69 98.3644C177.398 98.2725 178.293 98.1416 178.475 97.3724L178.108 96.868L177.384 96.6432H176.789C176.095 96.6432 175.868 96.5947 175.862 96.1908L175.663 95.7578L175.288 95.6068L174.593 95.666C173.948 95.666 173.459 95.4838 173.311 94.6353L173.313 94.6377ZM175.189 107.867L175.53 108.816L175.791 109.226L177.181 109.536H177.215L177.961 108.938L178.625 107.802L177.591 107.038L176.543 106.799L175.971 106.844L175.189 107.867ZM160.936 104.833L161.16 105.237L161.678 105.375H161.799L161.869 105.899L162.323 106.152C164.596 106.232 165.944 106.929 167.36 107.665L168.48 108.161L169.098 108.067C169.756 108.371 170.614 108.492 171.441 108.599C172.192 108.708 172.966 108.816 173.476 109.047L173.709 109.097L174.163 108.874L174.808 107.132L173.625 106.232L172.413 105.468L171.604 105.187C170.718 105.187 170.208 105.432 169.762 105.641L168.43 105.993H168.36L168.091 106.218L167.262 105.389L166.298 104.833L164.966 104.648L165.468 104.021L165.165 103.466L164.541 103.272L164.434 103.279L163.612 103.07C163.307 102.934 162.926 102.768 162.068 102.768L161.387 102.805L160.97 103.387L161.302 104.173L160.936 104.833ZM156.442 97.2296L156.554 97.8419C157.157 98.5035 158.64 98.5916 159.476 98.5916C160.041 98.5916 162.883 98.5257 163.621 97.2015L163.556 95.805L162.614 95.4947C161.594 95.4947 161.146 95.9704 160.949 96.4518L159.985 96.2639L158.674 96.5179C158.205 96.6603 157.676 96.8113 156.938 96.8626L156.442 97.2296ZM156.818 107.24C156.818 107.124 156.924 107.03 157.463 106.765L158.413 106.124L158.519 105.497L157.995 105.152H157.971C156.816 105.195 155.833 105.534 154.953 105.836C154.238 106.081 153.627 106.289 153.075 106.289L152.197 106.059L151.906 105.978L151.707 106.022L151.362 106.369C151.255 106.693 151.197 106.987 151.197 107.261C151.197 107.608 151.289 107.91 151.466 108.161C151.799 108.622 152.388 108.853 153.259 108.853L154.585 108.722L155.86 108.297L156.39 108.067L156.766 107.802L156.838 107.348C156.821 107.311 156.818 107.275 156.818 107.24ZM135.414 96.201L135.435 96.7909L135.654 97.2153L136.01 97.3441L137.164 97.1076L138.311 96.9275L139.248 97.0068L140.38 97.1212L140.786 96.9644L140.949 96.4946L140.217 95.6372L140.439 95.1783C140.473 95.056 140.487 94.9398 140.487 94.8257C140.487 94.2639 140.119 93.766 139.794 93.3125L139.269 92.0813L138.95 91.4324L138.723 91.3839L138.191 91.6494L137.221 92.9599L137.378 93.8743L136.895 94.4778L136.414 95.6034L135.996 95.6102L135.599 95.776L135.414 96.201ZM116.425 103.797L116.68 104.432C117.14 104.725 118.989 105.403 120.287 105.403C120.98 105.396 121.476 105.195 121.753 104.813C121.865 104.654 121.98 104.409 121.98 104.07C121.98 103.905 121.952 103.711 121.888 103.495L121.335 103.092L116.943 103.357L116.425 103.797ZM108.531 103.329L109.006 103.725L109.496 103.819L109.737 103.806L110.268 104.102C110.502 104.395 110.856 104.843 111.713 104.843H111.755L112.159 104.62L112.316 104.15L112.28 102.574L111.869 102.17L111.26 102.027L109.042 102.165L108.531 103.329ZM84.2222 106.844L84.7603 107.24H84.7741C86.1277 107.216 87.027 106.901 87.5172 106.303C87.7157 106.059 87.9215 105.676 87.9215 105.13C87.9215 104.992 87.9077 104.848 87.8794 104.697L87.5376 104.258L87.3184 104.207L86.9928 104.315C86.1219 104.913 85.2637 105.54 84.4141 106.181L84.2222 106.844ZM81.3324 98.9074L81.4304 99.4545L81.8785 99.6715L84.5273 99.4692L85.0521 98.3176L84.6115 97.7624L82.7698 97.3235L82.2178 97.5686L81.9068 98.144L81.3324 98.9074ZM57.8018 101.768L58.2557 102.141L58.9928 102.198C60.2394 102.198 60.4869 101.434 60.6212 101.025L61.1259 100.686L61.7279 100.737L62.1605 100.312L62.272 100.03L63.0373 100.787L63.3991 101.104L63.5617 101.132L63.8669 101.038L64.646 100.622L64.6598 100.636C64.8645 100.888 65.206 101.312 66.1053 101.471H66.1191L67.125 101.399L67.6132 100.995L67.947 100.462C68.1876 100.132 68.5273 99.6786 68.5273 99.0297C68.5273 98.8127 68.4928 98.5688 68.392 98.3091L67.8479 97.9353L62.5333 98.9358L62.1722 99.3893L61.8105 99.0075L61.1097 98.9727C59.1478 98.9795 58.6438 99.9015 58.2395 100.643L57.8998 101.189L57.8018 101.768ZM42.1166 102.164L42.2644 102.868L43.0217 103.848L43.1419 104.668L44.1851 105.073L44.4965 105.059L45.0002 104.648L46.388 104.366L47.1609 104.281L47.5427 104.036L47.6355 103.575C47.4584 102.731 47.1033 101.769 45.8498 101.774L44.9836 101.86L43.7867 101.968L42.7525 101.86L42.6265 101.847L42.1166 102.164Z" fill="white"/>
<path fill-rule="evenodd" clip-rule="evenodd" d="M72.6172 57.5651L77.6233 51.552C75.573 49.8966 73.2197 48.6281 70.6273 47.8009C68.0329 46.9178 65.1364 46.4766 62.0003 46.4766C58.5622 46.4766 55.4247 46.9737 52.7111 48.0215C49.9968 49.0148 47.6445 50.3937 45.7129 52.1586C43.7835 53.9242 42.2759 55.9653 41.31 58.3375C40.2242 60.709 39.7408 63.1913 39.7408 65.839C39.7408 68.7632 40.2846 71.356 41.31 73.7282C42.3353 76.1004 43.8429 78.0858 45.6532 79.7962C47.5829 81.4513 49.815 82.7201 52.4095 83.6578C55.0029 84.5406 57.8982 84.9818 61.0344 84.9818C68.0329 84.9818 73.8232 82.9957 78.4075 79.0236L73.2801 73.231C71.712 74.611 69.9025 75.6036 67.972 76.3759C65.9217 77.0381 63.8106 77.4237 61.5177 77.4237C59.648 77.4237 57.8982 77.1486 56.3309 76.5965C54.7618 75.9903 53.4348 75.2176 52.2882 74.1697C51.1419 73.1765 50.2972 71.9626 49.6343 70.5288C49.0308 69.0943 48.7303 67.4944 48.7303 65.7295C48.7303 64.0185 49.0308 62.4745 49.6343 61.0401C50.2379 59.6062 51.0814 58.3924 52.2288 57.2886C53.374 56.2408 54.7024 55.4682 56.2694 54.8619C57.8982 54.3099 59.648 54.0346 61.6379 54.0346C63.8699 54.0346 65.9217 54.3099 67.7309 54.972C69.6009 55.5241 71.2298 56.4068 72.6172 57.5651Z" fill="black"/>
<path fill-rule="evenodd" clip-rule="evenodd" d="M102.044 46.4766H85.9259V84.9818H103.57C105.911 84.9818 107.926 84.6947 109.614 84.0621C111.302 83.4301 112.718 82.6252 113.806 81.5905C114.95 80.5567 115.768 79.3493 116.312 77.9706C116.801 76.5337 117.074 75.0393 117.074 73.4877C117.074 71.3613 116.529 69.5226 115.441 67.97C114.406 66.3615 112.99 65.2698 111.193 64.6368V64.12C112.282 63.4884 113.153 62.5683 113.806 61.3037C114.406 60.0402 114.732 58.6026 114.732 56.9937C114.732 53.7178 113.643 51.1893 111.411 49.2928C109.232 47.3962 106.129 46.4766 102.044 46.4766ZM94.04 77.6257V68.6598H103.623C105.366 68.6598 106.727 69.0047 107.653 69.8097C108.579 70.4995 109.069 71.6483 109.069 73.0859C109.069 76.1309 107.272 77.6257 103.678 77.6257H94.04ZM94.04 61.6487V53.8326H102.099C105.203 53.8326 106.783 55.0975 106.783 57.6836C106.783 58.8903 106.401 59.8672 105.639 60.6139C104.821 61.3038 103.732 61.6487 102.371 61.6487H94.04Z" fill="black"/>
<path fill-rule="evenodd" clip-rule="evenodd" d="M145.508 46.4766C142.602 46.4766 139.92 46.9737 137.516 48.0215C135.113 49.0148 132.989 50.3937 131.256 52.1037C129.467 53.8137 128.07 55.8552 127.12 58.2273C126.17 60.5985 125.666 63.0812 125.666 65.7295C125.666 68.4321 126.17 70.9703 127.12 73.3415C128.07 75.7137 129.467 77.7548 131.256 79.4651C132.989 81.1751 135.113 82.5541 137.516 83.5474C139.92 84.485 142.602 84.9818 145.508 84.9818C148.471 84.9818 151.153 84.485 153.613 83.4369C156.017 82.4436 158.14 81.0647 159.873 79.3547C161.606 77.5897 163.003 75.5487 163.954 73.1765C164.904 70.8599 165.407 68.3772 165.407 65.7295C165.407 62.9707 164.904 60.4334 163.954 58.0613C163.003 55.7446 161.662 53.7036 159.873 51.9936C158.197 50.2832 156.072 48.9043 153.613 47.911C151.153 46.9737 148.471 46.4766 145.508 46.4766ZM145.508 53.8686C147.297 53.8686 148.918 54.1448 150.371 54.7514C151.769 55.358 152.998 56.1862 153.949 57.2341C154.954 58.2819 155.737 59.5507 156.241 61.0401C156.743 62.4745 157.022 64.0185 157.022 65.7295C157.022 67.3294 156.743 68.8734 156.296 70.3082C155.737 71.742 155.01 73.0114 154.06 74.0593C153.054 75.162 151.825 76.0448 150.371 76.6524C148.974 77.2587 147.352 77.5898 145.508 77.5898C143.721 77.5898 142.099 77.2587 140.702 76.707C139.305 76.0448 138.075 75.2176 137.069 74.1697C136.063 73.1219 135.28 71.8521 134.777 70.4183C134.274 68.9293 133.995 67.384 133.995 65.7295C133.995 64.0744 134.274 62.5295 134.777 61.0956C135.28 59.6608 136.063 58.3923 137.069 57.3442C138.019 56.2963 139.248 55.4136 140.645 54.806C142.099 54.1997 143.721 53.8686 145.508 53.8686Z" fill="black"/>
<path fill-rule="evenodd" clip-rule="evenodd" d="M204.896 46.4766H177.222V84.9818H193.926C196.021 84.9818 197.951 84.6948 199.715 84.1768C201.478 83.6021 203.023 82.7982 204.29 81.7634C205.558 80.6718 206.551 79.3494 207.323 77.8556C207.984 76.2461 208.37 74.5225 208.37 72.5108C208.37 70.4416 207.984 68.6598 207.323 67.0513C206.551 65.5569 205.558 64.235 204.345 63.2582C203.023 62.2234 201.535 61.4767 199.715 60.9588C197.951 60.4419 196.021 60.2121 193.926 60.2121H185.437V54.2358H204.896V46.4766ZM185.437 77.2808V67.7401H194.147C196.021 67.7401 197.454 68.143 198.502 69.0047C199.549 69.8097 200.046 70.9592 200.046 72.5108C200.046 73.9477 199.549 75.0972 198.502 76.0162C197.509 76.8208 195.966 77.2808 193.926 77.2808H185.437Z" fill="black"/>
<path fill-rule="evenodd" clip-rule="evenodd" d="M234.656 46.4766C231.593 46.4766 228.765 46.9737 226.232 48.0215C223.699 49.0148 221.46 50.3937 219.633 52.1037C217.748 53.8137 216.275 55.8552 215.274 58.2273C214.273 60.5985 213.741 63.0812 213.741 65.7295C213.741 68.4321 214.273 70.9703 215.274 73.3415C216.275 75.7137 217.748 77.7548 219.633 79.4651C221.46 81.1751 223.699 82.5541 226.232 83.5474C228.765 84.485 231.593 84.9818 234.656 84.9818C237.778 84.9818 240.606 84.485 243.199 83.4369C245.733 82.4436 247.971 81.0647 249.797 79.3547C251.624 77.5897 253.096 75.5487 254.099 73.1765C255.1 70.8599 255.63 68.3772 255.63 65.7295C255.63 62.9707 255.1 60.4334 254.099 58.0613C253.096 55.7446 251.683 53.7036 249.797 51.9936C248.03 50.2832 245.791 48.9043 243.199 47.911C240.606 46.9737 237.778 46.4766 234.656 46.4766ZM234.656 53.8686C236.542 53.8686 238.25 54.1448 239.782 54.7514C241.254 55.358 242.551 56.1862 243.553 57.2341C244.613 58.2819 245.437 59.5507 245.969 61.0401C246.498 62.4745 246.792 64.0185 246.792 65.7295C246.792 67.3294 246.498 68.8734 246.027 70.3082C245.437 71.742 244.672 73.0114 243.67 74.0593C242.61 75.162 241.314 76.0448 239.782 76.6524C238.31 77.2587 236.6 77.5898 234.656 77.5898C232.772 77.5898 231.063 77.2587 229.59 76.707C228.117 76.0448 226.821 75.2176 225.76 74.1697C224.7 73.1219 223.875 71.8521 223.345 70.4183C222.814 68.9293 222.521 67.384 222.521 65.7295C222.521 64.0744 222.814 62.5295 223.345 61.0956C223.875 59.6608 224.7 58.3923 225.76 57.3442C226.762 56.2963 228.058 55.4136 229.53 54.806C231.063 54.1997 232.772 53.8686 234.656 53.8686Z" fill="black"/>
<path fill-rule="evenodd" clip-rule="evenodd" d="M299.41 46.4766H270.052V52.8097C270.052 57.2834 269.819 61.3504 269.355 65.011C268.891 68.6709 268.137 71.6929 267.093 74.0165C266.571 75.2364 265.875 76.1662 265.062 76.7476C264.25 77.3287 263.437 77.6189 262.625 77.6189H261V80.0009L261.464 93.5385H269.355L269.819 85.4044H296.104L296.451 93.5385H304.284L305.037 79.9424V77.5611H299.41V46.4766ZM278.639 54.262H290.707V77.5611H274.926C276.028 75.3528 276.956 72.2733 277.595 68.3807C278.233 64.4874 278.581 59.7818 278.639 54.262Z" fill="black"/>
<path fill-rule="evenodd" clip-rule="evenodd" d="M320.476 46.4766H311.481V84.9818H320.476V69.5226H337.931V84.9818H346.926V46.4766H337.931V61.5339H320.476V46.4766Z" fill="black"/>
<path fill-rule="evenodd" clip-rule="evenodd" d="M402.777 46.4766H393.898V84.9818H402.777V46.4766ZM366.547 46.4766H357.666V84.9818H374.361C376.61 84.9818 378.683 84.6368 380.518 84.0621C382.413 83.3722 384.011 82.5105 385.373 81.3038C386.734 80.1539 387.74 78.7752 388.511 77.1657C389.28 75.4993 389.636 73.7175 389.636 71.7062C389.636 69.5798 389.28 67.626 388.511 66.0165C387.74 64.2919 386.674 62.9133 385.373 61.7638C383.952 60.6721 382.354 59.8104 380.4 59.2352C378.445 58.6026 376.315 58.3156 374.006 58.3156H366.547V46.4766ZM366.547 77.2808V65.9586H373.651C375.959 65.9586 377.677 66.4187 378.92 67.3962C380.163 68.3149 380.755 69.7518 380.755 71.6483C380.755 75.3842 378.387 77.2808 373.709 77.2808H366.547Z" fill="black"/>
<path fill-rule="evenodd" clip-rule="evenodd" d="M441.496 46.4766H411.37V84.9818H442.519V77.2236H420.27V69.0047H439.211V61.4768H420.27V54.2358H441.496V46.4766Z" fill="black"/>
</svg>
