<svg width="156" height="34" viewBox="0 0 156 34" fill="none" xmlns="http://www.w3.org/2000/svg">
<path d="M0.24 24H6V14.84C6 13.68 6.16 12.4 7.12 11.44C7.56 10.96 8.32 10.48 9.52 10.48C10.56 10.48 11.28 10.84 11.72 11.28C12.64 12.2 12.68 13.68 12.68 14.84V24H18.44L18.44 12.72C18.44 11.28 18.32 9.16 16.64 7.48C15.12 5.96 13.08 5.68 11.52 5.68C9.84 5.68 7.76 6.04 6 8.28V6.16H0.24L0.24 24ZM43.0153 15.08C43.0153 12.8 42.1353 10.24 40.3353 8.44C38.7353 6.84 36.0153 5.56 32.5353 5.56C29.0553 5.56 26.3353 6.84 24.7353 8.44C22.9353 10.24 22.0553 12.8 22.0553 15.08C22.0553 17.36 22.9353 19.92 24.7353 21.72C26.3353 23.32 29.0553 24.6 32.5353 24.6C36.0153 24.6 38.7353 23.32 40.3353 21.72C42.1353 19.92 43.0153 17.36 43.0153 15.08ZM32.5353 10.44C33.8553 10.44 34.9353 10.88 35.7753 11.72C36.6153 12.56 37.0953 13.64 37.0953 15.08C37.0953 16.52 36.6153 17.6 35.7753 18.44C34.9353 19.28 33.8553 19.72 32.5753 19.72C31.0553 19.72 30.0153 19.16 29.2953 18.44C28.6153 17.76 27.9753 16.72 27.9753 15.08C27.9753 13.64 28.4553 12.56 29.2953 11.72C30.1353 10.88 31.2153 10.44 32.5353 10.44ZM52.3672 21.96C52.9672 22.8 54.4872 24.6 58.0472 24.6C60.4072 24.6 62.3272 23.96 64.0872 22.2C65.8472 20.44 66.9272 18.12 66.9272 15.04C66.9272 12.12 65.8472 9.68 64.2472 8.08C63.1272 6.96 61.1272 5.56 57.9272 5.56C56.5672 5.56 54.2472 5.84 52.3672 8.28V6.16H46.6072L46.6072 33.16H52.3672V21.96ZM56.5272 10.52C57.6872 10.52 58.8072 10.96 59.6472 11.76C60.4472 12.52 61.0072 13.68 61.0072 15C61.0072 16.16 60.5272 17.52 59.6072 18.4C58.7672 19.2 57.6072 19.64 56.5272 19.64C55.2872 19.64 54.0872 19.12 53.2472 18.28C52.4072 17.4 51.9672 16.24 51.9672 15.12C51.9672 14.04 52.4072 12.76 53.3272 11.84C53.8872 11.28 54.9272 10.52 56.5272 10.52ZM70.5134 24H76.2734V16.76C76.2734 15.24 76.3934 13.32 77.6734 11.96C78.3934 11.2 79.3134 10.76 80.5534 10.76C81.5534 10.76 82.3934 11 83.1534 11.4L83.4734 6C82.8334 5.8 82.3134 5.72 81.5934 5.72C80.4734 5.72 79.4734 5.88 78.5134 6.48C77.5934 7.04 76.7934 7.96 76.2734 8.96V6.16L70.5134 6.16V24ZM90.4391 12.64C90.5991 11.84 90.9991 11.2 91.4391 10.72C91.9991 10.16 92.8791 9.56 94.3591 9.56C95.5191 9.56 96.4391 9.96 97.0791 10.56C97.9191 11.36 98.1991 12.48 98.2391 12.64L90.4391 12.64ZM103.559 15.48C103.559 13.28 103.159 10.48 101.039 8.24C98.8391 5.92 95.9591 5.56 93.9591 5.56C91.9591 5.56 89.2791 5.96 87.1191 8.12C85.3191 9.96 84.3991 12.6 84.3991 15.16C84.3991 18.12 85.5191 20.48 87.0791 22.04C89.1591 24.12 91.5191 24.6 94.1991 24.6C96.1991 24.6 98.1191 24.32 99.8391 23.28C100.879 22.64 102.479 21.32 103.279 18.8L97.8391 18.24C97.3591 19.24 96.6791 19.68 96.5991 19.72C95.9991 20.08 95.1191 20.24 94.2791 20.24C93.3991 20.24 92.1991 20.08 91.3191 19.12C90.5991 18.32 90.2391 17.04 90.2391 16.08L103.559 16.08V15.48ZM120.354 7.08C118.914 6.24 117.074 5.56 114.434 5.56C112.794 5.56 110.634 5.88 109.034 7.36C107.994 8.32 107.314 9.76 107.314 11.48C107.314 12.84 107.754 13.84 108.594 14.72C109.354 15.48 110.434 16.04 111.474 16.36L112.914 16.8C113.754 17.04 114.274 17.2 114.674 17.44C115.194 17.76 115.314 18.16 115.314 18.48C115.314 18.92 115.074 19.36 114.714 19.64C114.194 20.04 113.274 20.04 112.914 20.04C112.154 20.04 111.314 19.88 110.514 19.48C109.914 19.2 109.114 18.64 108.554 18.16L106.114 22.04C108.434 24.08 111.034 24.6 113.434 24.6C115.314 24.6 117.474 24.32 119.234 22.56C120.034 21.76 121.074 20.24 121.074 17.88C121.074 16.52 120.714 15.44 119.674 14.48C118.754 13.64 117.714 13.24 116.714 12.92L115.194 12.44C114.474 12.2 113.874 12.08 113.474 11.84C113.194 11.68 112.914 11.44 112.914 11.04C112.914 10.76 113.074 10.44 113.274 10.24C113.634 9.88 114.314 9.72 114.914 9.72C116.034 9.72 117.194 10.2 118.074 10.72L120.354 7.08ZM129.658 12.64C129.818 11.84 130.218 11.2 130.658 10.72C131.218 10.16 132.098 9.56 133.578 9.56C134.738 9.56 135.658 9.96 136.298 10.56C137.138 11.36 137.418 12.48 137.458 12.64H129.658ZM142.778 15.48C142.778 13.28 142.378 10.48 140.258 8.24C138.058 5.92 135.178 5.56 133.178 5.56C131.178 5.56 128.498 5.96 126.338 8.12C124.538 9.96 123.618 12.6 123.618 15.16C123.618 18.12 124.738 20.48 126.298 22.04C128.378 24.12 130.738 24.6 133.418 24.6C135.418 24.6 137.338 24.32 139.058 23.28C140.098 22.64 141.698 21.32 142.498 18.8L137.058 18.24C136.578 19.24 135.898 19.68 135.818 19.72C135.218 20.08 134.338 20.24 133.498 20.24C132.618 20.24 131.418 20.08 130.538 19.12C129.818 18.32 129.458 17.04 129.458 16.08L142.778 16.08V15.48ZM155.853 10.8V6.16H152.293V0.399999L146.533 0.399999V6.16H144.533V10.8H146.533V24H152.293V10.8H155.853Z" fill="black"/>
</svg>
