<svg width="94" height="21" viewBox="0 0 94 21" fill="none" xmlns="http://www.w3.org/2000/svg">
<path d="M0.344 15H3.8L3.8 9.504C3.8 8.808 3.896 8.04 4.472 7.464C4.736 7.176 5.192 6.888 5.912 6.888C6.536 6.888 6.968 7.104 7.232 7.368C7.784 7.92 7.808 8.808 7.808 9.504V15L11.264 15L11.264 8.232C11.264 7.368 11.192 6.096 10.184 5.088C9.272 4.176 8.048 4.008 7.112 4.008C6.104 4.008 4.856 4.224 3.8 5.568V4.296H0.344L0.344 15ZM26.0092 9.648C26.0092 8.28 25.4812 6.744 24.4012 5.664C23.4412 4.704 21.8092 3.936 19.7212 3.936C17.6332 3.936 16.0012 4.704 15.0412 5.664C13.9612 6.744 13.4332 8.28 13.4332 9.648C13.4332 11.016 13.9612 12.552 15.0412 13.632C16.0012 14.592 17.6332 15.36 19.7212 15.36C21.8092 15.36 23.4412 14.592 24.4012 13.632C25.4812 12.552 26.0092 11.016 26.0092 9.648ZM19.7212 6.864C20.5132 6.864 21.1612 7.128 21.6652 7.632C22.1692 8.136 22.4572 8.784 22.4572 9.648C22.4572 10.512 22.1692 11.16 21.6652 11.664C21.1612 12.168 20.5132 12.432 19.7452 12.432C18.8332 12.432 18.2092 12.096 17.7772 11.664C17.3692 11.256 16.9852 10.632 16.9852 9.648C16.9852 8.784 17.2732 8.136 17.7772 7.632C18.2812 7.128 18.9292 6.864 19.7212 6.864ZM31.6203 13.776C31.9803 14.28 32.8923 15.36 35.0283 15.36C36.4443 15.36 37.5963 14.976 38.6523 13.92C39.7083 12.864 40.3563 11.472 40.3563 9.624C40.3563 7.872 39.7083 6.408 38.7483 5.448C38.0763 4.776 36.8763 3.936 34.9563 3.936C34.1403 3.936 32.7483 4.104 31.6203 5.568V4.296H28.1643V20.496H31.6203L31.6203 13.776ZM34.1163 6.912C34.8123 6.912 35.4843 7.176 35.9883 7.656C36.4683 8.112 36.8043 8.808 36.8043 9.6C36.8043 10.296 36.5163 11.112 35.9643 11.64C35.4603 12.12 34.7643 12.384 34.1163 12.384C33.3723 12.384 32.6523 12.072 32.1483 11.568C31.6443 11.04 31.3803 10.344 31.3803 9.672C31.3803 9.024 31.6443 8.256 32.1963 7.704C32.5323 7.368 33.1563 6.912 34.1163 6.912ZM42.5081 15H45.9641L45.9641 10.656C45.9641 9.744 46.0361 8.592 46.8041 7.776C47.2361 7.32 47.7881 7.056 48.5321 7.056C49.1321 7.056 49.6361 7.2 50.0921 7.44L50.2841 4.2C49.9001 4.08 49.5881 4.032 49.1561 4.032C48.4841 4.032 47.8841 4.128 47.3081 4.488C46.7561 4.824 46.2761 5.376 45.9641 5.976V4.296H42.5081L42.5081 15ZM54.4634 8.184C54.5594 7.704 54.7994 7.32 55.0634 7.032C55.3994 6.696 55.9274 6.336 56.8154 6.336C57.5114 6.336 58.0634 6.576 58.4474 6.936C58.9514 7.416 59.1194 8.088 59.1434 8.184H54.4634ZM62.3354 9.888C62.3354 8.568 62.0954 6.888 60.8234 5.544C59.5034 4.152 57.7754 3.936 56.5754 3.936C55.3754 3.936 53.7674 4.176 52.4714 5.472C51.3914 6.576 50.8394 8.16 50.8394 9.696C50.8394 11.472 51.5114 12.888 52.4474 13.824C53.6954 15.072 55.1114 15.36 56.7194 15.36C57.9194 15.36 59.0714 15.192 60.1034 14.568C60.7274 14.184 61.6874 13.392 62.1674 11.88L58.9034 11.544C58.6154 12.144 58.2074 12.408 58.1594 12.432C57.7994 12.648 57.2714 12.744 56.7674 12.744C56.2394 12.744 55.5194 12.648 54.9914 12.072C54.5594 11.592 54.3434 10.824 54.3434 10.248H62.3354V9.888ZM72.4124 4.848C71.5484 4.344 70.4444 3.936 68.8604 3.936C67.8764 3.936 66.5804 4.128 65.6204 5.016C64.9964 5.592 64.5884 6.456 64.5884 7.488C64.5884 8.304 64.8524 8.904 65.3564 9.432C65.8124 9.888 66.4604 10.224 67.0844 10.416L67.9484 10.68C68.4524 10.824 68.7644 10.92 69.0044 11.064C69.3164 11.256 69.3884 11.496 69.3884 11.688C69.3884 11.952 69.2444 12.216 69.0284 12.384C68.7164 12.624 68.1644 12.624 67.9484 12.624C67.4924 12.624 66.9884 12.528 66.5084 12.288C66.1484 12.12 65.6684 11.784 65.3324 11.496L63.8684 13.824C65.2604 15.048 66.8204 15.36 68.2604 15.36C69.3884 15.36 70.6844 15.192 71.7404 14.136C72.2204 13.656 72.8444 12.744 72.8444 11.328C72.8444 10.512 72.6284 9.864 72.0044 9.288C71.4524 8.784 70.8284 8.544 70.2284 8.352L69.3164 8.064C68.8844 7.92 68.5244 7.848 68.2844 7.704C68.1164 7.608 67.9484 7.464 67.9484 7.224C67.9484 7.056 68.0444 6.864 68.1644 6.744C68.3804 6.528 68.7884 6.432 69.1484 6.432C69.8204 6.432 70.5164 6.72 71.0444 7.032L72.4124 4.848ZM77.9947 8.184C78.0907 7.704 78.3307 7.32 78.5947 7.032C78.9307 6.696 79.4587 6.336 80.3467 6.336C81.0427 6.336 81.5947 6.576 81.9787 6.936C82.4827 7.416 82.6507 8.088 82.6747 8.184H77.9947ZM85.8667 9.888C85.8667 8.568 85.6267 6.888 84.3547 5.544C83.0347 4.152 81.3067 3.936 80.1067 3.936C78.9067 3.936 77.2987 4.176 76.0027 5.472C74.9227 6.576 74.3707 8.16 74.3707 9.696C74.3707 11.472 75.0427 12.888 75.9787 13.824C77.2267 15.072 78.6427 15.36 80.2507 15.36C81.4507 15.36 82.6027 15.192 83.6347 14.568C84.2587 14.184 85.2187 13.392 85.6987 11.88L82.4347 11.544C82.1467 12.144 81.7387 12.408 81.6907 12.432C81.3307 12.648 80.8027 12.744 80.2987 12.744C79.7707 12.744 79.0507 12.648 78.5227 12.072C78.0907 11.592 77.8747 10.824 77.8747 10.248H85.8667V9.888ZM93.7117 7.08V4.296L91.5757 4.296V0.839999H88.1197V4.296H86.9197V7.08H88.1197V15H91.5757V7.08L93.7117 7.08Z" fill="black"/>
</svg>
