<svg width="288" height="206" viewBox="0 0 288 206" fill="none" xmlns="http://www.w3.org/2000/svg">
<g clip-path="url(#clip0)">
<path d="M76.9882 157.77C105.282 157.77 134.026 143.165 134.026 110.417C134.026 82.7571 111.57 71.6933 89.5634 65.0551L73.3953 59.9657C59.0236 55.9828 58.1254 49.1232 58.1254 46.0254C58.1254 37.6169 65.3112 30.3148 76.3145 30.3148C88.4406 30.3148 94.0545 38.0594 94.0545 47.1317H129.31C129.31 17.4808 106.63 0 76.9882 0C46.2239 0 22.4208 19.251 22.4208 46.6892C22.4208 61.0721 28.933 81.6508 63.0657 90.7231L81.4793 96.255C95.1773 100.68 98.5457 106.212 98.5457 112.187C98.5457 122.144 89.7879 127.897 78.3355 127.897C66.2095 127.897 56.3289 120.374 56.3289 110.638H21.0735C21.0735 138.74 43.9783 157.77 76.9882 157.77Z" fill="url(#paint0_linear)"/>
<path d="M207.886 157.77C237.752 157.77 264.923 136.085 264.923 103.557C264.923 70.8082 237.752 49.1232 207.886 49.1232C178.02 49.1232 151.073 70.8082 151.073 103.557C151.073 136.085 178.02 157.77 207.886 157.77ZM207.886 127.455C195.086 127.455 184.756 117.719 184.756 103.557C184.756 89.3954 195.086 79.438 207.886 79.438C220.685 79.438 231.015 89.3954 231.015 103.557C231.015 117.719 220.685 127.455 207.886 127.455Z" fill="url(#paint1_linear)"/>
<path d="M279.994 107.986L11.9944 53.4412C5.79713 52.1799 0 56.916 0 63.2403L0 196C0 201.523 4.47715 206 10 206H278C283.523 206 288 201.523 288 196V117.785C288 113.031 284.653 108.934 279.994 107.986Z" fill="#C0996B"/>
<mask id="mask0" mask-type="alpha" maskUnits="userSpaceOnUse" x="0" y="53" width="288" height="153">
<path d="M279.994 107.961L11.9937 53.4346C5.79666 52.1738 0 56.9098 0 63.2338L0 196C0 201.523 4.47715 206 10 206H278C283.523 206 288 201.523 288 196V117.76C288 113.006 284.653 108.909 279.994 107.961Z" fill="#C0996B"/>
</mask>
<g mask="url(#mask0)">
<path d="M182.192 180.293C180.533 180.821 178.875 181.35 178.875 181.35C175.306 180.969 168.168 180.208 164.347 178.389C164.347 178.389 164.347 178.389 162.436 177.479C160.525 176.569 156.704 174.75 157.858 171.344C159.011 167.939 162.076 165.443 165.392 164.385C173.684 161.741 183.238 166.289 187.311 169.547C189.727 173.333 188.321 175.3 186.915 177.268C186.915 177.268 183.85 179.764 182.192 180.293ZM165.897 167.262C164.239 167.791 162.833 169.758 162.833 169.758C162.833 169.758 164.996 172.106 166.654 171.577L168.565 172.487C170.728 174.835 175.955 174.687 179.524 175.068C182.841 174.01 182.841 174.01 184.499 173.481C184.499 173.481 184.247 172.043 183.995 170.604C180.173 168.785 170.872 165.676 165.897 167.262Z" fill="#D4AD7F"/>
<path d="M203.047 189.314C199.901 190.317 196.489 189.81 193.342 190.813C191.769 191.315 191.769 191.315 189.931 190.306L186.784 191.309C180.226 191.805 173.668 192.301 167.109 192.797C158.713 192.284 141.655 189.749 134.55 177.663C134.285 176.153 134.285 176.153 134.02 174.643C133.49 171.623 136.637 170.62 136.372 169.11C147.633 157.548 163.366 152.534 178.851 155.571C192.497 157.599 204.322 168.18 208.28 181.269C208.81 184.289 209.34 187.309 208.032 189.32C205.929 186.802 204.621 188.813 203.047 189.314ZM157.868 159.07C151.575 161.076 143.973 165.093 139.783 169.617C138.21 170.119 138.475 171.629 138.475 171.629L138.74 173.139C143.476 181.196 154.241 185.737 167.623 186.255C174.181 185.759 180.739 185.264 187.297 184.768L190.444 183.765C192.017 183.263 192.017 183.263 193.856 184.272C197.267 184.779 202.252 184.784 203.561 182.773C203.561 182.773 203.296 181.263 203.031 179.753C199.337 168.174 189.351 158.602 175.704 156.574C170.719 156.568 164.161 157.064 157.868 159.07Z" fill="#D4AD7F"/>
<path d="M303.095 215.794C287.225 211.301 269.768 207.316 254.958 199.292C243.85 193.274 233.802 183.724 225.605 175.177C221.639 171.659 217.672 168.141 213.442 163.112C195.725 148.039 179.591 142.034 164.513 142.076C157.9 142.598 151.287 143.121 143.35 145.663C133.562 147.203 124.038 150.254 115.31 148.262C103.407 147.286 85.4218 140.279 75.6375 132.241C43.638 112.166 37.0321 93.5323 29.6307 79.9422C26.7236 72.8929 23.8166 65.8437 17.9988 61.3229L20.6456 57.2828C26.7273 63.3151 29.3704 68.8528 32.5414 77.4137C38.3555 91.5122 46.5487 109.637 76.697 128.709C86.2173 135.236 104.202 142.243 114.518 143.727C122.982 144.208 131.183 143.177 140.707 140.126C147.056 138.092 155.257 137.061 161.87 136.538C178.535 135.988 196.52 142.995 214.237 158.069C218.204 161.587 222.17 165.104 226.401 170.134C236.185 178.172 244.382 186.719 255.753 194.249C268.976 202.782 286.433 206.766 302.039 209.747L303.095 215.794Z" fill="#D4AD7F"/>
<path d="M309.298 228.99C273.747 226.039 253.996 218.027 236.088 211.018C221.867 206.014 209.227 200.504 192.373 199.53C188.949 199.033 185.789 200.045 182.366 199.549C162.352 199.587 143.918 199.119 128.907 189.589C124.957 186.075 121.006 182.56 118.636 178.54C116.529 176.029 114.422 173.517 112.579 172.515C108.365 167.492 97.8308 164.493 87.2969 161.495C80.1865 158.993 74.9196 157.493 69.3892 154.485C26.7259 129.915 12.5033 105.793 -0.139322 81.1658C-5.14367 71.6165 -10.148 62.0672 -16.7324 53.024L-12.2559 49.9969C-5.67155 59.0401 -0.667207 68.5894 4.33715 78.1387C16.9798 102.766 29.6224 127.394 72.0222 150.456C75.7091 152.461 82.8195 154.963 88.0864 156.462C98.6203 159.461 109.154 162.459 113.632 168.991C115.738 171.502 117.845 174.014 119.952 176.525C122.323 180.546 126.273 184.06 129.96 186.065C143.391 196.101 161.825 196.569 179.996 195.529C183.419 196.025 186.579 195.013 190.002 195.51C208.436 195.977 221.077 201.487 235.298 206.491C253.206 213.501 272.957 221.512 308.508 224.463L309.298 228.99Z" fill="#D4AD7F"/>
<path d="M311.685 243.774C265.34 245.856 240.32 236.324 215.565 228.303C201.343 223.288 188.965 219.277 173.692 217.788L168.689 217.796C158.418 216.3 146.832 216.821 136.298 213.814C131.031 212.311 125.5 209.298 120.233 207.795C116.545 205.786 113.122 205.287 109.435 203.278C105.747 201.269 100.48 199.766 96.7931 197.757C48.5978 179.698 0.138759 160.128 -24.1052 107.285C-37.8087 76.5857 -55.7238 50.4246 -66.258 47.4184L-62.0462 42.8798C-49.6684 46.8905 -32.0171 71.5412 -17.786 105.262C4.61432 157.1 52.8096 175.159 101.005 193.218C104.692 195.227 109.959 196.73 113.646 198.739C117.334 200.748 120.757 201.247 124.444 203.256C129.975 206.27 135.242 207.773 140.51 209.276C151.044 212.282 161.05 212.267 171.321 213.763L176.324 213.756C191.597 215.244 205.555 218.749 218.197 224.27C241.109 231.287 267.708 240.313 312.473 238.736L311.685 243.774Z" fill="#D4AD7F"/>
<path d="M302.486 204.516C277.148 203.083 258.682 183.535 240.478 165.495C222.275 147.454 205.656 128.906 182.165 128.473C177.15 128.488 172.135 128.503 167.12 128.517C163.689 128.025 158.937 129.547 155.506 129.055C128.584 128.129 107.476 112.61 90.3256 100.598C86.3681 97.0915 82.4106 93.5848 78.7164 91.5852C64.9969 80.0653 51.2775 68.5455 34.9165 61.0545L37.558 57.0256C53.9189 64.5165 69.4855 77.0362 83.205 88.556C87.1624 92.0627 91.1199 95.5694 94.8141 97.569C110.381 110.089 131.225 124.101 156.564 125.533C159.995 126.026 165.01 126.011 168.177 124.996C173.192 124.981 178.207 124.966 183.222 124.951C208.56 126.384 227.027 145.932 243.646 164.48C261.85 182.521 280.053 200.562 303.807 202.501L302.486 204.516Z" fill="#D4AD7F"/>
<path d="M292.967 164.603L238.243 129.522C226.876 122.003 215.508 114.485 203.081 110.494C195.942 107.998 189.067 107.012 182.191 106.025C177.167 106.041 173.465 104.038 168.441 104.053C136.975 96.5952 110.274 78.0454 85.425 60.4971L37.8403 27.9118L40.487 23.8755L88.0716 56.4609C112.921 74.0092 139.358 91.0491 171.087 100.017C174.789 102.02 179.813 102.004 183.251 102.497C190.126 103.484 197.265 105.98 204.404 108.476C216.831 112.466 228.199 119.985 239.566 127.503L294.29 162.585L292.967 164.603Z" fill="#D4AD7F"/>
<path d="M288.268 114.164C218.82 99.6504 152.537 64.94 92.5876 9.01804L86.7777 4.48552C70.9322 -9.61963 56.671 -24.2324 37.1299 -30.7594C37.3942 -29.2456 37.3942 -29.2456 37.6585 -27.7317L33.17 -24.6951C31.0572 -27.2151 32.1129 -30.7504 34.7528 -34.7933L36.0727 -36.8147L37.9213 -35.8085C59.3109 -28.2753 75.4207 -12.6563 91.2661 1.44886L97.076 5.98139C158.609 61.3958 223.308 96.6137 290.908 110.121L288.268 114.164Z" fill="#D4AD7F"/>
<path d="M327.804 248.841C137.162 271.711 -0.445221 217.42 -52.7162 99.4196L-48.2525 96.4089C3.49299 211.408 139.525 266.202 328.328 242.334L327.804 248.841Z" fill="#D4AD7F"/>
<path d="M303.047 267.853C262.487 274.461 57.316 303.489 -44.0885 219.838C-82.8066 189.286 -102.299 144.637 -102.038 88.9019L-97.297 87.3862C-97.8213 141.615 -77.0125 184.253 -39.8747 215.311C61.2664 297.456 263.276 269.438 303.573 261.324L305.153 260.819L303.047 267.853Z" fill="#D4AD7F"/>
<path d="M293.014 288.769C266.182 297.351 185.159 310.559 159.905 309.108C154.907 309.119 149.909 309.129 144.911 309.14C111.502 308.709 81.2502 307.269 50.9985 296.301C-4.24377 275.859 -51.0676 236.846 -91.3146 178.263C-106.835 156.233 -119.198 133.193 -131.561 110.153L-141.294 92.6235L-136.822 89.6054L-127.089 107.135C-114.726 130.175 -102.363 153.215 -86.8425 175.245C-48.437 232.829 -1.61307 271.842 53.6292 292.284C82.3025 303.756 114.133 304.692 145.963 305.628C150.961 305.617 155.959 305.607 160.958 305.596C189.631 307.541 284.859 289.79 298.539 282.239L300.906 286.246C299.328 286.75 297.75 287.255 293.014 288.769Z" fill="#D4AD7F"/>
<path d="M203.75 356.06C20.7329 413.747 -87.8058 304.73 -110.768 277.717L-106.337 274.763C-79.4613 305.213 67.1699 452.043 312.713 299.919L315.062 303.849C274.92 328.956 238.163 345.213 203.75 356.06Z" fill="#D4AD7F"/>
</g>
</g>
<defs>
<linearGradient id="paint0_linear" x1="135.46" y1="107.684" x2="178.501" y2="6.43127" gradientUnits="userSpaceOnUse">
<stop stop-color="#1E2124"/>
<stop offset="1" stop-color="#2D343C"/>
</linearGradient>
<linearGradient id="paint1_linear" x1="135.46" y1="107.684" x2="178.501" y2="6.43127" gradientUnits="userSpaceOnUse">
<stop stop-color="#1E2124"/>
<stop offset="1" stop-color="#2D343C"/>
</linearGradient>
<clipPath id="clip0">
<rect width="288" height="206" fill="white"/>
</clipPath>
</defs>
</svg>
