<svg width="448" height="320" viewBox="0 0 448 320" fill="none" xmlns="http://www.w3.org/2000/svg">
<g clip-path="url(#clip0)">
<path d="M111.067 268.753C159.129 268.753 207.954 243.876 207.954 188.09C207.954 140.973 169.809 122.126 132.428 110.818L104.963 102.149C80.5508 95.3641 79.025 83.6792 79.025 78.4021C79.025 64.0787 91.2313 51.6399 109.922 51.6399C130.52 51.6399 140.057 64.8325 140.057 80.2868H199.944C199.944 29.7777 161.418 0 111.067 0C58.8083 0 18.3749 32.7932 18.3749 79.533C18.3749 104.034 29.4368 139.088 87.4168 154.543L118.696 163.966C141.964 171.505 147.686 180.928 147.686 191.105C147.686 208.067 132.809 217.867 113.355 217.867C92.7571 217.867 75.9734 205.052 75.9734 188.467H16.0862C16.0862 236.337 54.9938 268.753 111.067 268.753Z" fill="url(#paint0_linear)"/>
<path d="M333.418 268.753C384.15 268.753 430.305 231.814 430.305 176.405C430.305 120.619 384.15 83.6792 333.418 83.6792C282.685 83.6792 236.911 120.619 236.911 176.405C236.911 231.814 282.685 268.753 333.418 268.753ZM333.418 217.114C311.675 217.114 294.128 200.529 294.128 176.405C294.128 152.281 311.675 135.319 333.418 135.319C355.16 135.319 372.707 152.281 372.707 176.405C372.707 200.529 355.16 217.114 333.418 217.114Z" fill="url(#paint1_linear)"/>
<path d="M439.991 168.978L11.9907 82.0366C5.79448 80.7779 0 85.5137 0 91.8364L0 339.94C0 345.463 4.47714 349.94 9.99999 349.94H438C443.523 349.94 448 345.463 448 339.94V178.778C448 174.023 444.651 169.925 439.991 168.978Z" fill="#C0996B"/>
<mask id="mask0" mask-type="alpha" maskUnits="userSpaceOnUse" x="0" y="81" width="448" height="269">
<path d="M439.991 168.979L11.9907 82.0366C5.7945 80.7779 0 85.5136 0 91.8364L0 340C0 345.523 4.47714 350 9.99999 350H438C443.523 350 448 345.523 448 340V178.779C448 174.024 444.651 169.926 439.991 168.979Z" fill="#C0996B"/>
</mask>
<g mask="url(#mask0)">
<path d="M283.409 280.415C280.829 281.236 278.249 282.057 278.249 282.057C272.698 281.466 261.594 280.283 255.65 277.458C255.65 277.458 255.65 277.458 252.677 276.045C249.705 274.632 243.761 271.807 245.556 266.518C247.35 261.228 252.117 257.352 257.276 255.709C270.175 251.602 285.036 258.666 291.372 263.726C295.13 269.606 292.942 272.662 290.755 275.717C290.755 275.717 285.988 279.594 283.409 280.415ZM258.061 260.177C255.482 260.998 253.295 264.054 253.295 264.054C253.295 264.054 256.659 267.7 259.239 266.879L262.211 268.292C265.576 271.938 273.707 271.709 279.259 272.3C284.418 270.657 284.418 270.657 286.998 269.836C286.998 269.836 286.606 267.602 286.213 265.368C280.269 262.543 265.8 257.713 258.061 260.177Z" fill="#D4AD7F"/>
<path d="M315.851 294.427C310.956 295.985 305.649 295.197 300.755 296.755C298.307 297.534 298.307 297.534 295.448 295.967L290.553 297.525C280.351 298.295 270.15 299.065 259.948 299.835C246.887 299.039 220.352 295.102 209.3 276.331C208.888 273.986 208.888 273.986 208.475 271.641C207.651 266.95 212.546 265.393 212.133 263.048C229.651 245.091 254.125 237.303 278.212 242.019C299.44 245.169 317.834 261.603 323.992 281.931C324.816 286.621 325.64 291.312 323.605 294.436C320.334 290.524 318.298 293.648 315.851 294.427ZM245.572 247.454C235.783 250.569 223.958 256.808 217.44 263.835C214.993 264.614 215.405 266.959 215.405 266.959L215.817 269.304C223.186 281.818 239.931 288.871 260.746 289.676C270.948 288.906 281.15 288.135 291.351 287.365L296.246 285.808C298.694 285.029 298.694 285.029 301.553 286.595C306.86 287.383 314.614 287.391 316.65 284.267C316.65 284.267 316.237 281.922 315.825 279.577C310.08 261.594 294.545 246.727 273.318 243.577C265.563 243.568 255.362 244.338 245.572 247.454Z" fill="#D4AD7F"/>
<path d="M471.48 335.552C446.794 328.574 419.639 322.386 396.601 309.923C379.322 300.576 363.692 285.744 350.941 272.469C344.771 267.006 338.601 261.543 332.02 253.732C304.46 230.321 279.364 220.995 255.909 221.06C245.622 221.872 235.335 222.683 222.989 226.632C207.763 229.023 192.948 233.761 179.37 230.667C160.854 229.153 132.878 218.269 117.658 205.785C67.8811 174.606 57.6052 145.667 46.0919 124.56C41.5698 113.611 37.0478 102.663 27.9979 95.6419L32.1151 89.3671C41.5755 98.7359 45.687 107.337 50.6197 120.633C59.6638 142.529 72.4089 170.679 119.306 200.3C134.115 210.437 162.092 221.32 178.139 223.624C191.306 224.371 204.062 222.77 218.877 218.031C228.754 214.872 241.51 213.271 251.798 212.459C277.721 211.605 305.698 222.488 333.258 245.899C339.428 251.363 345.598 256.826 352.179 264.637C367.398 277.121 380.149 290.396 397.838 302.09C418.407 315.343 445.562 321.531 469.838 326.161L471.48 335.552Z" fill="#D4AD7F"/>
<path d="M481.13 356.047C425.828 351.464 395.104 339.02 367.248 328.134C345.127 320.363 325.463 311.805 299.246 310.292C293.921 309.521 289.005 311.093 283.68 310.322C252.547 310.381 223.873 309.654 200.522 294.853C194.377 289.395 188.232 283.937 184.544 277.693C181.267 273.792 177.989 269.892 175.122 268.335C168.567 260.533 152.181 255.876 135.795 251.219C124.734 247.334 116.541 245.005 107.938 240.333C41.5731 202.173 19.4491 164.709 -0.217215 126.46C-8.00176 111.629 -15.7863 96.7978 -26.0286 82.7527L-19.0652 78.0513C-8.8229 92.0964 -1.03837 106.927 6.74618 121.759C26.4125 160.008 46.0788 198.257 112.034 234.075C117.769 237.189 128.83 241.075 137.023 243.403C153.409 248.06 169.795 252.717 176.76 262.862C180.037 266.762 183.315 270.663 186.592 274.564C190.279 280.808 196.425 286.265 202.16 289.38C223.053 304.967 251.728 305.694 279.993 304.078C285.318 304.849 290.233 303.277 295.559 304.048C324.234 304.775 343.897 313.333 366.018 321.104C393.875 331.99 424.599 344.434 479.9 349.017L481.13 356.047Z" fill="#D4AD7F"/>
<path d="M484.843 379.008C412.751 382.242 373.832 367.438 335.323 354.98C313.201 347.191 293.946 340.962 270.187 338.65L262.404 338.661C246.428 336.338 228.405 337.147 212.019 332.478C203.825 330.143 195.222 325.463 187.029 323.128C181.293 320.008 175.967 319.234 170.232 316.114C164.496 312.993 156.303 310.659 150.567 307.539C75.5965 279.491 0.215694 249.097 -37.4972 167.027C-58.8136 119.347 -86.6816 78.7156 -103.068 74.0467L-96.5165 66.9978C-77.2621 73.2268 -49.8045 111.512 -27.6673 163.884C7.17769 244.394 82.1481 272.442 157.119 300.49C162.854 303.61 171.048 305.944 176.783 309.065C182.519 312.185 187.844 312.959 193.58 316.079C202.184 320.76 210.377 323.094 218.57 325.429C234.957 330.098 250.522 330.075 266.499 332.398L274.281 332.387C298.04 334.698 319.752 340.142 339.417 348.717C375.058 359.615 416.434 373.633 486.069 371.185L484.843 379.008Z" fill="#D4AD7F"/>
<path d="M470.534 318.036C431.119 315.811 402.393 285.451 374.077 257.432C345.761 229.412 319.908 200.605 283.367 199.933C275.566 199.956 267.765 199.979 259.964 200.003C254.627 199.238 247.235 201.602 241.898 200.837C200.019 199.4 167.185 175.297 140.506 156.641C134.35 151.194 128.194 145.748 122.447 142.643C101.106 124.751 79.7645 106.859 54.3142 95.2252L58.4231 88.9678C83.8734 100.602 108.088 120.046 129.43 137.938C135.586 143.384 141.742 148.831 147.488 151.936C171.703 171.38 204.128 193.142 243.543 195.367C248.88 196.132 256.681 196.109 261.609 194.533C269.41 194.51 277.211 194.487 285.012 194.464C324.427 196.688 353.152 227.049 379.005 255.856C407.321 283.875 435.637 311.895 472.588 314.908L470.534 318.036Z" fill="#D4AD7F"/>
<path d="M455.726 256.047L370.601 201.562C352.918 189.885 335.235 178.208 315.903 172.01C304.798 168.133 294.104 166.601 283.409 165.07C275.593 165.093 269.835 161.983 262.019 162.006C213.072 150.424 171.538 121.614 132.883 94.3593L58.8628 43.7508L62.9798 37.482L137 88.0906C175.655 115.345 216.779 141.81 266.136 155.737C271.894 158.848 279.71 158.825 285.057 159.59C295.752 161.122 306.857 164.999 317.962 168.875C337.293 175.073 354.976 186.75 372.659 198.427L457.785 252.913L455.726 256.047Z" fill="#D4AD7F"/>
<path d="M448.417 177.711C340.386 155.169 237.279 101.26 144.025 14.4069L134.987 7.36737C110.339 -14.5395 88.1546 -37.2347 57.7574 -47.3718C58.1685 -45.0207 58.1685 -45.0207 58.5796 -42.6695L51.5976 -37.9533C48.3109 -41.8672 49.9531 -47.3579 54.0596 -53.6369L56.1129 -56.7764L58.9884 -55.2137C92.2611 -43.5137 117.321 -19.2557 141.969 2.65111L151.007 9.69061C246.726 95.7552 347.368 150.453 452.524 171.431L448.417 177.711Z" fill="#D4AD7F"/>
<path d="M509.917 386.878C213.363 422.398 -0.69268 338.079 -82.0031 154.81L-75.0595 150.134C5.43342 328.741 217.038 413.842 510.733 376.773L509.917 386.878Z" fill="#D4AD7F"/>
<path d="M471.405 416.405C408.312 426.668 89.1575 471.752 -68.5829 341.833C-128.811 294.383 -159.132 225.038 -158.726 138.475L-151.352 136.121C-152.167 220.345 -119.798 286.567 -62.028 334.802C95.3025 462.382 409.54 418.868 472.224 406.266L474.682 405.481L471.405 416.405Z" fill="#D4AD7F"/>
<path d="M455.8 448.891C414.061 462.219 288.025 482.733 248.741 480.48C240.966 480.496 233.191 480.512 225.416 480.529C173.447 479.86 126.389 477.623 79.3305 460.589C-6.60188 428.84 -79.439 368.248 -142.045 277.263C-166.188 243.047 -185.419 207.264 -204.651 171.481L-219.791 144.255L-212.835 139.568L-197.695 166.793C-178.463 202.577 -159.231 238.36 -135.089 272.576C-75.3468 362.01 -2.50968 422.601 83.4227 454.35C128.026 472.168 177.54 473.621 227.053 475.074C234.828 475.057 242.603 475.041 250.378 475.025C294.981 478.046 443.114 450.476 464.393 438.749L468.076 444.972C465.621 445.756 463.166 446.54 455.8 448.891Z" fill="#D4AD7F"/>
<path d="M316.944 553.401C32.2507 642.996 -136.587 473.679 -172.306 431.725L-165.414 427.138C-123.607 474.43 104.486 702.473 486.442 466.207L490.097 472.311C427.654 511.306 370.476 536.554 316.944 553.401Z" fill="#D4AD7F"/>
</g>
</g>
<defs>
<linearGradient id="paint0_linear" x1="210.39" y1="183.434" x2="283.852" y2="11.1043" gradientUnits="userSpaceOnUse">
<stop stop-color="#1E2124"/>
<stop offset="1" stop-color="#2D343C"/>
</linearGradient>
<linearGradient id="paint1_linear" x1="210.39" y1="183.434" x2="283.852" y2="11.1043" gradientUnits="userSpaceOnUse">
<stop stop-color="#1E2124"/>
<stop offset="1" stop-color="#2D343C"/>
</linearGradient>
<clipPath id="clip0">
<rect width="448" height="320" fill="white"/>
</clipPath>
</defs>
</svg>
