<svg width="800" height="633" viewBox="0 0 800 633" fill="none" xmlns="http://www.w3.org/2000/svg">
<g clip-path="url(#clip0)">
<path d="M194.263 467.676C277.421 467.676 361.899 424.384 361.899 327.307C361.899 245.316 295.9 212.52 231.222 192.842L183.703 177.756C141.464 165.949 138.825 145.616 138.825 136.433C138.825 111.508 159.944 89.8619 192.283 89.8619C227.922 89.8619 244.422 112.819 244.422 139.712H348.039C348.039 51.8182 281.381 0 194.263 0C103.845 0 33.8873 57.0656 33.8873 138.4C33.8873 181.036 53.0268 242.037 153.344 268.93L207.463 285.328C247.722 298.447 257.621 314.845 257.621 332.555C257.621 362.071 231.882 379.125 198.223 379.125C162.584 379.125 133.545 356.824 133.545 327.963H29.9274C29.9274 411.266 97.2456 467.676 194.263 467.676Z" fill="url(#paint0_linear)"/>
<path d="M578.976 467.676C666.754 467.676 746.612 403.395 746.612 306.974C746.612 209.896 666.754 145.616 578.976 145.616C491.198 145.616 412.001 209.896 412.001 306.974C412.001 403.395 491.198 467.676 578.976 467.676ZM578.976 377.814C541.357 377.814 510.998 348.953 510.998 306.974C510.998 264.994 541.357 235.478 578.976 235.478C616.595 235.478 646.954 264.994 646.954 306.974C646.954 348.953 616.595 377.814 578.976 377.814Z" fill="url(#paint1_linear)"/>
<path d="M791.742 298.558L11.742 160.574C5.61738 159.49 0 164.201 0 170.421L0 623C0 628.523 4.47714 633 9.99999 633H790C795.523 633 800 628.523 800 623V308.406C800 303.555 796.519 299.403 791.742 298.558Z" fill="#C0996B"/>
<mask id="mask0" mask-type="alpha" maskUnits="userSpaceOnUse" x="0" y="160" width="800" height="474">
<path d="M791.742 298.56L11.742 160.574C5.61739 159.491 0 164.201 0 170.421L0 623.949C0 629.472 4.47714 633.949 9.99999 633.949H790C795.523 633.949 800 629.472 800 623.949V308.407C800 303.556 796.519 299.405 791.742 298.56Z" fill="#C0996B"/>
</mask>
<g mask="url(#mask0)">
<path d="M493.23 366.942C488.726 368 484.223 369.059 484.223 369.059C474.398 367.736 454.749 365.089 444.106 360.325C444.106 360.325 444.106 360.325 438.785 357.943C433.463 355.561 422.821 350.797 425.688 342.857C428.556 334.917 436.745 329.359 445.752 327.242C468.27 321.948 494.876 333.858 506.337 342.063C513.294 351.326 509.608 355.826 505.923 360.325C505.923 360.325 497.733 365.883 493.23 366.942ZM447.388 334.123C442.885 335.182 439.199 339.681 439.199 339.681C439.199 339.681 445.338 345.504 449.842 344.445L455.163 346.827C461.302 352.65 475.63 352.914 485.455 354.238C494.462 352.12 494.462 352.12 498.966 351.062C498.966 351.062 498.148 347.621 497.33 344.18C486.687 339.416 460.899 330.947 447.388 334.123Z" fill="#D4AD7F"/>
<path d="M550.854 390.655C542.306 392.665 532.898 391.059 524.349 393.069C520.075 394.074 520.075 394.074 514.942 391.463L506.393 393.473C488.437 393.877 470.48 394.282 452.524 394.686C429.434 392.48 382.395 384.453 361.838 354.932C360.979 351.317 360.979 351.317 360.12 347.702C358.401 340.472 366.95 338.463 366.091 334.848C395.988 308.734 438.731 298.686 481.496 307.718C519.128 314.139 552.507 340.646 564.514 372.176C566.233 379.406 567.952 386.636 564.537 391.256C558.544 385.03 555.129 389.65 550.854 390.655ZM424.212 313.55C407.115 317.57 386.603 326.209 375.498 336.453C371.224 337.458 372.083 341.073 372.083 341.073L372.943 344.688C386.647 364.368 416.589 376.414 453.361 379.221C471.317 378.817 489.274 378.412 507.23 378.008L515.779 375.999C520.053 374.994 520.053 374.994 525.187 377.604C534.595 379.209 548.277 379.81 551.692 375.19C551.692 375.19 550.832 371.575 549.973 367.96C538.825 340.045 510.579 316.149 472.948 309.727C459.266 309.127 441.309 309.531 424.212 313.55Z" fill="#D4AD7F"/>
<path d="M827.975 468.263C784.35 455.876 736.444 444.495 695.4 423.953C664.618 408.547 636.417 384.987 613.346 363.994C602.236 355.285 591.125 346.576 579.165 334.293C529.593 296.888 485.118 280.926 444.042 279.261C426.069 279.712 408.096 280.163 386.692 285.195C360.157 287.658 334.472 293.696 310.519 288.006C278.004 284.328 228.399 265.799 201.047 245.812C112.131 195.014 92.5245 150.565 71.1862 117.844C62.6574 100.981 54.1287 84.1174 37.8878 72.8404L44.7503 63.68C61.8408 78.5309 69.52 91.8205 78.8983 112.258C95.9558 145.985 119.843 189.427 203.629 237.658C230.131 254.071 279.736 272.599 307.97 277.284C331.073 279.4 353.327 277.943 379.012 271.905C396.136 267.88 418.39 266.423 436.363 265.972C481.72 266.631 531.325 285.159 580.897 322.564C592.008 331.274 603.118 339.983 615.078 352.266C642.43 372.253 665.5 393.245 697.132 412.225C733.895 433.773 781.801 445.154 824.576 453.967L827.975 468.263Z" fill="#D4AD7F"/>
<path d="M845.172 501.401C748.034 490.323 693.517 469.227 644.11 450.697C604.924 437.301 570 422.903 523.986 418.647C514.614 417.082 506.09 419.086 496.718 417.521C442.18 415.269 391.904 412.015 350.173 387.913C339.104 379.211 328.035 370.509 321.228 360.806C315.27 354.67 309.311 348.535 304.201 345.969C292.283 333.698 263.318 325.435 234.353 317.172C214.76 310.474 200.277 306.342 184.946 298.642C66.5597 236.04 25.7183 177.817 -10.8612 118.593C-25.3234 95.6167 -39.7855 72.6407 -58.5097 50.6664L-46.5718 44.0923C-27.8476 66.0666 -13.3855 89.0426 1.07659 112.019C37.6561 171.243 74.2355 230.468 191.773 289.501C201.994 294.635 221.587 301.333 236.07 305.465C265.035 313.728 294.001 321.991 306.766 337.83C312.725 343.965 318.683 350.1 324.642 356.235C331.449 365.939 342.518 374.641 352.739 379.774C390.208 404.878 440.483 408.132 489.911 407.817C499.283 409.382 507.807 407.378 517.18 408.943C567.455 412.197 602.379 426.595 641.565 439.992C690.972 458.521 745.489 479.618 842.627 490.696L845.172 501.401Z" fill="#D4AD7F"/>
<path d="M851.904 538.977C725.704 538.438 656.655 513.14 588.455 491.417C549.241 477.982 515.141 467.121 473.363 461.84L459.72 461.271C431.585 456.559 400.035 456.424 371.049 448.136C356.556 443.992 341.214 436.272 326.721 432.128C316.492 426.981 307.114 425.411 296.885 420.264C286.657 415.118 272.164 410.973 261.936 405.827C128.951 357.803 -4.88402 306.204 -75.5614 179.351C-115.582 105.699 -166.696 42.2059 -195.681 33.9177L-184.589 23.7593C-150.489 34.6208 -100.225 94.5386 -58.5044 175.342C7.05879 299.621 140.044 347.645 273.028 395.669C283.257 400.815 297.75 404.959 307.978 410.106C318.207 415.252 327.585 416.823 337.814 421.97C353.156 429.689 367.649 433.833 382.142 437.977C411.127 446.266 438.413 447.403 466.549 452.115L480.191 452.684C521.97 457.965 560.334 467.824 595.284 482.261C658.369 501.411 731.683 525.707 853.618 527.248L851.904 538.977Z" fill="#D4AD7F"/>
<path d="M826.406 441.246C757.226 434.922 705.21 386.922 654.041 342.486C602.872 298.05 555.976 252.61 491.916 248.847C478.25 248.295 464.584 247.744 450.917 247.192C441.524 245.636 428.705 248.649 419.311 247.093C345.858 241.774 286.991 202.912 239.211 172.736C228.123 164.05 217.035 155.364 206.794 150.243C168.408 121.623 130.022 93.004 84.7856 73.5236L91.6367 64.3847C136.873 83.8651 180.38 115.045 218.765 143.664C229.854 152.351 240.942 161.037 251.183 166.158C294.689 197.338 352.709 232.635 421.889 238.958C431.283 240.515 444.949 241.066 453.495 239.057C467.162 239.609 480.828 240.161 494.495 240.713C563.675 247.036 615.691 295.037 662.587 340.477C713.756 384.913 764.925 429.348 829.832 436.677L826.406 441.246Z" fill="#D4AD7F"/>
<path d="M800.018 349.724L647.845 261.055C616.214 242.094 584.584 223.133 550.37 212.321C530.698 205.633 511.875 202.516 493.052 199.398C479.359 198.846 469.098 193.716 455.405 193.164C369.003 171.994 294.633 125.371 225.393 81.3126L92.8919 -0.667868L99.7566 -9.82331L232.258 72.1572C301.498 116.216 375.019 159.268 462.27 184.009C472.531 189.139 486.223 189.691 495.635 191.249C514.458 194.367 534.13 201.055 553.802 207.744C588.016 218.556 619.646 237.517 651.277 256.478L803.45 345.147L800.018 349.724Z" fill="#D4AD7F"/>
<path d="M787.118 235.503C596.751 193.389 413.262 104.338 245.192 -33.6567L228.98 -44.9524C184.615 -79.8435 144.52 -115.738 90.7448 -133.311C91.595 -129.734 91.595 -129.734 92.4453 -126.157L80.4847 -119.569C74.5139 -125.719 77.0837 -133.876 83.9237 -143.037L87.3438 -147.618L92.4643 -145.045C151.36 -124.899 196.575 -86.4316 240.941 -51.5406L257.153 -40.2448C429.493 96.7462 608.712 186.801 793.958 226.342L787.118 235.503Z" fill="#D4AD7F"/>
<path d="M896.571 549.947C376.598 581.564 -4.88086 437.15 -158.257 152.276L-146.298 145.689C5.37872 423.412 382.587 568.829 897.44 534.64L896.571 549.947Z" fill="#D4AD7F"/>
<path d="M828.047 595.446C717.696 606.262 159.111 650.608 -125.473 441.501C-234.012 364.931 -291.195 257.384 -295.319 126.023L-282.486 123.006C-279.213 250.787 -218.603 353.747 -114.342 431.322C169.391 636.849 719.42 594.514 828.92 580.117L833.198 579.111L828.047 595.446Z" fill="#D4AD7F"/>
<path d="M800.552 644.954C727.94 662.023 507.579 683.635 438.413 677.253C424.749 676.691 411.086 676.13 397.422 675.568C306.05 670.632 223.22 663.688 139.564 634.297C-13.2347 579.651 -144.63 482.238 -259.742 339.488C-304.083 285.762 -339.881 230.027 -375.68 174.292L-403.809 131.848L-391.845 125.262L-363.716 167.706C-327.917 223.441 -292.119 279.176 -247.778 332.902C-137.786 473.082 -6.39122 570.495 146.408 625.142C225.792 655.537 312.893 661.476 399.995 667.416C413.658 667.978 427.321 668.54 440.985 669.101C519.544 677.049 778.346 646.401 815.089 630.217L821.909 639.934C817.637 640.938 813.366 641.942 800.552 644.954Z" fill="#D4AD7F"/>
<path d="M678.975 714.3C567.588 740.496 415.096 765.035 278.964 744.198C213.89 736.852 51.2409 699.601 -18.0809 674.378L-11.2116 665.212C53.826 691.443 215.626 725.118 281.55 736.04C511.009 768.904 800.665 674.355 820.387 662.166L827.22 671.885C822.935 672.892 764.657 694.149 678.975 714.3Z" fill="#D4AD7F"/>
<path d="M556.819 784.24C56.2688 901.932 -253.328 625.626 -319.178 557.628L-307.197 551.017C-230.229 627.784 187.984 999.978 852.893 661.501L859.734 671.276C751.055 727.186 650.94 762.109 556.819 784.24Z" fill="#D4AD7F"/>
<path d="M476.641 851.786C224.677 911.052 13.9272 878.069 -66.9676 803.283L-55.0002 796.715C55.6901 902.018 434.631 921.708 804.778 714.561L811.581 724.219C695.333 785.335 583.405 826.673 476.641 851.786Z" fill="#D4AD7F"/>
</g>
</g>
<defs>
<linearGradient id="paint0_linear" x1="366.113" y1="319.206" x2="494.456" y2="19.8548" gradientUnits="userSpaceOnUse">
<stop stop-color="#1E2124"/>
<stop offset="1" stop-color="#2D343C"/>
</linearGradient>
<linearGradient id="paint1_linear" x1="366.113" y1="319.206" x2="494.456" y2="19.8548" gradientUnits="userSpaceOnUse">
<stop stop-color="#1E2124"/>
<stop offset="1" stop-color="#2D343C"/>
</linearGradient>
<clipPath id="clip0">
<rect width="800" height="633" fill="white"/>
</clipPath>
</defs>
</svg>
