<svg width="557" height="430" viewBox="0 0 557 430" fill="none" xmlns="http://www.w3.org/2000/svg">
<g clip-path="url(#clip0)">
<path d="M138.089 334C197.846 334 258.55 303.083 258.55 233.753C258.55 175.198 211.125 151.776 164.648 137.722L130.501 126.948C100.149 118.516 98.2521 103.994 98.2521 97.4362C98.2521 79.6354 113.428 64.1767 136.667 64.1767C162.276 64.1767 174.133 80.5722 174.133 99.7784H248.591C248.591 37.007 200.691 0 138.089 0C73.1165 0 22.8455 40.7546 22.8455 98.8415C22.8455 129.29 36.5989 172.856 108.686 192.062L147.575 203.773C176.504 213.142 183.618 224.853 183.618 237.501C183.618 258.581 165.122 270.76 140.935 270.76C115.325 270.76 94.458 254.833 94.458 234.222H20C20 293.714 68.374 334 138.089 334Z" fill="url(#paint0_linear)"/>
<path d="M414.539 334C477.615 334 535 288.093 535 219.231C535 149.902 477.615 103.994 414.539 103.994C351.463 103.994 294.553 149.902 294.553 219.231C294.553 288.093 351.463 334 414.539 334ZM414.539 269.823C387.507 269.823 365.691 249.212 365.691 219.231C365.691 189.251 387.507 168.171 414.539 168.171C441.572 168.171 463.388 189.251 463.388 219.231C463.388 249.212 441.572 269.823 414.539 269.823Z" fill="url(#paint1_linear)"/>
<path d="M548.99 210.398L11.9899 101.361C5.7939 100.102 0 104.838 0 111.161L0 419.926C0 425.449 4.47716 429.926 10 429.926H547C552.523 429.926 557 425.449 557 419.926V220.198C557 215.442 553.651 211.344 548.99 210.398Z" fill="#C0996B"/>
<mask id="mask0" mask-type="alpha" maskUnits="userSpaceOnUse" x="0" y="101" width="557" height="329">
<path d="M548.99 210.399L11.9899 101.361C5.79391 100.102 0 104.838 0 111.161L0 420C0 425.523 4.47716 430 10 430H547C552.523 430 557 425.523 557 420V220.199C557 215.443 553.651 211.345 548.99 210.399Z" fill="#C0996B"/>
</mask>
<g mask="url(#mask0)">
<path d="M352.795 315.117C349.585 316.138 346.375 317.16 346.375 317.16C339.466 316.423 325.649 314.95 318.252 311.435C318.252 311.435 318.252 311.435 314.554 309.677C310.855 307.919 303.458 304.404 305.691 297.824C307.924 291.245 313.855 286.423 320.275 284.38C336.324 279.274 354.817 288.063 362.703 294.357C367.379 301.673 364.657 305.474 361.936 309.274C361.936 309.274 356.005 314.096 352.795 315.117ZM321.252 289.939C318.042 290.96 315.321 294.76 315.321 294.76C315.321 294.76 319.508 299.297 322.718 298.276L326.416 300.034C330.603 304.571 340.722 304.286 347.63 305.022C354.05 302.979 354.05 302.979 357.26 301.958C357.26 301.958 356.772 299.179 356.283 296.4C348.886 292.884 330.882 286.875 321.252 289.939Z" fill="#D4AD7F"/>
<path d="M393.165 332.552C387.074 334.489 380.471 333.509 374.38 335.446C371.335 336.414 371.335 336.414 367.776 334.465L361.685 336.403C348.991 337.359 336.297 338.316 323.602 339.273C307.349 338.281 274.33 333.379 260.576 310.028C260.062 307.11 260.062 307.11 259.549 304.193C258.523 298.358 264.614 296.421 264.1 293.504C285.897 271.168 316.351 261.483 346.325 267.353C372.74 271.274 395.63 291.72 403.294 317.008C404.32 322.843 405.346 328.678 402.814 332.564C398.743 327.698 396.21 331.583 393.165 332.552ZM305.709 274.109C293.528 277.983 278.814 285.743 270.704 294.484C267.659 295.452 268.172 298.37 268.172 298.37L268.685 301.287C277.855 316.855 298.693 325.631 324.595 326.635C337.289 325.678 349.984 324.721 362.678 323.764L368.769 321.827C371.814 320.859 371.814 320.859 375.373 322.808C381.977 323.788 391.626 323.8 394.158 319.914C394.158 319.914 393.645 316.996 393.132 314.079C385.981 291.708 366.649 273.212 340.234 269.29C330.585 269.278 317.89 270.235 305.709 274.109Z" fill="#D4AD7F"/>
<path d="M586.828 383.735C556.109 375.052 522.318 367.351 493.65 351.845C472.149 340.215 452.698 321.763 436.831 305.249C429.152 298.452 421.474 291.655 413.285 281.938C378.989 252.813 347.759 241.209 318.574 241.287C305.773 242.295 292.973 243.303 277.61 248.213C258.665 251.186 240.23 257.078 223.335 253.228C200.295 251.341 165.481 237.799 146.542 222.267C84.5995 183.477 71.8103 147.476 57.482 121.219C51.8541 107.6 46.2261 93.98 34.9645 85.2449L40.0871 77.44C51.8599 89.0954 56.9767 99.7947 63.1157 116.335C74.3716 143.574 90.2332 178.592 148.592 215.445C167.021 228.056 201.834 241.598 221.802 244.467C238.186 245.397 254.059 243.407 272.494 237.514C284.783 233.586 300.657 231.596 313.457 230.588C345.715 229.528 380.528 243.069 414.824 272.195C422.502 278.992 430.18 285.789 438.37 295.506C457.309 311.038 473.177 327.552 495.189 342.102C520.785 358.59 554.576 366.291 584.783 372.054L586.828 383.735Z" fill="#D4AD7F"/>
<path d="M598.836 409.234C530.021 403.525 491.789 388.043 457.125 374.497C429.598 364.827 405.129 354.18 372.506 352.294C365.88 351.334 359.763 353.289 353.137 352.329C314.397 352.399 278.716 351.491 249.658 333.076C242.011 326.286 234.364 319.496 229.775 311.728C225.697 306.876 221.618 302.023 218.05 300.086C209.892 290.381 189.502 284.585 169.112 278.79C155.349 273.955 145.153 271.058 134.448 265.245C51.8642 217.767 24.3311 171.162 -0.143745 123.58C-9.83164 105.13 -19.5196 86.6796 -32.2657 69.2071L-23.6012 63.3597C-10.8551 80.8322 -1.16722 99.2822 8.52067 117.732C32.9955 165.315 57.4704 212.897 139.544 257.46C146.681 261.335 160.445 266.17 170.64 269.068C191.03 274.863 211.42 280.658 220.087 293.278C224.166 298.131 228.245 302.983 232.323 307.836C236.912 315.603 244.559 322.393 251.696 326.268C277.695 345.661 313.377 346.569 348.548 344.562C355.174 345.522 361.291 343.567 367.917 344.527C403.599 345.435 428.067 356.082 455.594 365.752C490.258 379.298 528.491 394.78 597.305 400.488L598.836 409.234Z" fill="#D4AD7F"/>
<path d="M603.456 437.801C513.749 441.814 465.319 423.394 417.4 407.892C389.871 398.2 365.912 390.449 336.347 387.57L326.663 387.583C306.783 384.691 284.356 385.695 263.965 379.885C253.77 376.98 243.064 371.157 232.868 368.252C225.731 364.37 219.104 363.406 211.967 359.523C204.829 355.641 194.634 352.736 187.496 348.854C94.205 313.955 0.402902 276.137 -46.5319 174.041C-73.0609 114.727 -107.742 64.1811 -128.133 58.3711L-119.981 49.6035C-96.0212 57.3545 -61.8512 104.983 -34.3004 170.133C9.06559 270.288 102.357 305.187 195.648 340.087C202.786 343.969 212.981 346.874 220.118 350.756C227.256 354.638 233.883 355.602 241.02 359.484C251.726 365.307 261.922 368.212 272.117 371.117C292.508 376.927 311.877 376.901 331.757 379.793L341.441 379.78C371.006 382.658 398.023 389.432 422.493 400.101C466.844 413.663 518.332 431.106 604.981 428.069L603.456 437.801Z" fill="#D4AD7F"/>
<path d="M585.65 361.946C536.604 359.173 500.857 321.403 465.62 286.545C430.382 251.687 398.211 215.849 352.741 215.009C343.033 215.036 333.326 215.064 323.619 215.092C316.978 214.14 307.78 217.08 301.139 216.127C249.028 214.335 208.168 184.348 174.969 161.137C167.309 154.362 159.648 147.586 152.497 143.722C125.939 121.463 99.3819 99.2044 67.7121 84.7289L72.8244 76.9455C104.494 91.421 134.627 115.612 161.185 137.871C168.845 144.646 176.506 151.422 183.657 155.286C213.79 179.477 254.14 206.551 303.185 209.324C309.827 210.276 319.534 210.248 325.666 208.289C335.373 208.261 345.08 208.233 354.787 208.205C403.833 210.978 439.58 248.748 471.751 284.586C506.989 319.444 542.226 354.302 588.206 358.054L585.65 361.946Z" fill="#D4AD7F"/>
<path d="M567.223 284.839L461.294 217.051C439.289 202.523 417.284 187.996 393.229 180.283C379.41 175.46 366.102 173.553 352.794 171.646C343.068 171.674 335.904 167.804 326.178 167.832C265.27 153.418 213.585 117.575 165.483 83.6673L73.3722 20.7037L78.4946 12.9063L170.606 75.8699C218.708 109.778 269.882 142.704 331.3 160.035C338.465 163.905 348.191 163.877 354.845 164.83C368.153 166.737 381.972 171.561 395.79 176.385C419.846 184.097 441.85 198.625 463.855 213.153L569.785 280.94L567.223 284.839Z" fill="#D4AD7F"/>
<path d="M558.129 187.399C423.7 159.345 295.395 92.2725 179.348 -15.7792L168.101 -24.537C137.428 -51.7909 109.822 -80.0252 71.9967 -92.6391C72.5085 -89.7143 72.5085 -89.7143 73.0203 -86.7896L64.3327 -80.9238C60.2427 -85.7929 62.2856 -92.6227 67.3949 -100.433L69.9496 -104.338L73.5278 -102.394C114.931 -87.8354 146.116 -57.6568 176.789 -30.4029L188.036 -21.645C307.149 85.4263 432.387 153.479 563.238 179.589L558.129 187.399Z" fill="#D4AD7F"/>
<path d="M634.658 447.589C265.643 491.737 -0.724679 386.819 -101.919 158.83L-93.2794 153.015C6.89755 375.204 270.216 481.094 635.672 435.018L634.658 447.589Z" fill="#D4AD7F"/>
<path d="M586.734 484.321C508.225 497.08 111.09 553.121 -85.2058 391.487C-160.155 332.454 -197.891 246.188 -197.393 138.508L-188.217 135.58C-189.224 240.351 -148.94 322.732 -77.0499 382.741C118.735 541.466 509.753 487.376 587.753 471.708L590.811 470.732L586.734 484.321Z" fill="#D4AD7F"/>
<path d="M567.316 524.732C515.379 541.306 358.548 566.808 309.665 564C299.991 564.019 290.316 564.039 280.641 564.058C215.973 563.219 157.416 560.43 98.8577 539.235C-8.0749 499.73 -98.7149 424.348 -176.627 311.158C-206.671 268.593 -230.605 224.077 -254.54 179.562L-273.381 145.693L-264.725 139.863L-245.884 173.732C-221.949 218.247 -198.015 262.763 -167.971 305.328C-93.6233 416.587 -2.98332 491.97 103.949 531.475C159.452 553.645 221.065 555.459 282.678 557.273C292.352 557.253 302.027 557.234 311.702 557.215C367.204 560.978 551.531 526.702 578.008 512.117L582.591 519.858C579.536 520.833 576.481 521.808 567.316 524.732Z" fill="#D4AD7F"/>
<path d="M481.825 600.61C403.334 624.961 296.168 649.392 201.597 637.592C156.323 634.006 43.6469 610.191 -4.13603 592.691L0.898369 585.252C45.6624 603.689 157.836 624.721 203.613 631.089C363.077 649.205 567.868 565.1 581.959 554.851L586.483 562.263C583.464 563.2 542.203 581.878 481.825 600.61Z" fill="#D4AD7F"/>
<path d="M394.531 654.704C40.273 766.125 -169.84 555.471 -214.292 503.275L-205.715 497.569C-153.687 556.407 130.166 840.125 605.444 546.255L609.991 553.849C532.292 602.351 461.144 633.753 394.531 654.704Z" fill="#D4AD7F"/>
</g>
</g>
<defs>
<linearGradient id="paint0_linear" x1="261.579" y1="227.968" x2="352.848" y2="13.7721" gradientUnits="userSpaceOnUse">
<stop stop-color="#1E2124"/>
<stop offset="1" stop-color="#2D343C"/>
</linearGradient>
<linearGradient id="paint1_linear" x1="261.579" y1="227.968" x2="352.848" y2="13.7721" gradientUnits="userSpaceOnUse">
<stop stop-color="#1E2124"/>
<stop offset="1" stop-color="#2D343C"/>
</linearGradient>
<clipPath id="clip0">
<rect width="557" height="430" fill="white"/>
</clipPath>
</defs>
</svg>
